<svg width="232.3725341796875px" height="58.3987548828125px" xmlns="http://www.w3.org/2000/svg" viewBox="133.81373291015626 45.80062255859375 232.3725341796875 58.3987548828125" style="background: rgba(29, 14, 11, 0);" preserveAspectRatio="xMidYMid"><defs><filter id="editing-extrusion" x="-100%" y="-100%" width="300%" height="300%"><feFlood result="color1" flood-color="#ff8240"></feFlood><feConvolveMatrix order="1,1" divisor="1" kernelMatrix="1" in="SourceAlpha" result="extrude"></feConvolveMatrix><feComposite in="color1" in2="extrude" result="comp-extrude" operator="in"></feComposite><feOffset dx="0.5" dy="0.5" in="comp-extrude" result="offset-extrude"></feOffset><feMerge><feMergeNode in="offset-extrude"></feMergeNode><feMergeNode in="SourceGraphic"></feMergeNode></feMerge></filter></defs><g filter="url(#editing-extrusion)"><g transform="translate(173.4242650270462, 88.32481288909912)"><path d="M13.80-16.20L13.80-16.20L13.80-16.20Q13.80-15.75 13.59-15.25L13.59-15.25L13.59-15.25Q13.38-14.75 13.08-14.28L13.08-14.28L13.08-14.28Q12.78-13.80 12.40-13.41L12.40-13.41L12.40-13.41Q12.03-13.03 11.68-12.78L11.68-12.78L11.68-12.78Q10.73-12.08 9.59-11.44L9.59-11.44L9.59-11.44Q8.45-10.80 7.38-10.38L7.38-10.38L7.38-10.38Q7.33-10.35 7.15-10.29L7.15-10.29L7.15-10.29Q6.98-10.23 6.93-10.28L6.93-10.28L6.93-10.28Q6.88-10.33 7-10.46L7-10.46L7-10.46Q7.13-10.60 7.20-10.65L7.20-10.65L7.20-10.65Q7.38-10.83 7.66-11.08L7.66-11.08L7.66-11.08Q7.95-11.33 8.26-11.56L8.26-11.56L8.26-11.56Q8.58-11.80 8.89-12.03L8.89-12.03L8.89-12.03Q9.20-12.25 9.45-12.38L9.45-12.38L9.45-12.38Q9.63-12.48 10.24-12.94L10.24-12.94L10.24-12.94Q10.85-13.40 11.55-14.01L11.55-14.01L11.55-14.01Q12.25-14.63 12.86-15.25L12.86-15.25L12.86-15.25Q13.48-15.88 13.63-16.28L13.63-16.28L13.63-16.28Q13.73-16.45 13.78-16.40L13.78-16.40L13.78-16.40Q13.80-16.38 13.80-16.30L13.80-16.30L13.80-16.30Q13.80-16.23 13.80-16.20ZM2.90-6.93L2.90-6.93L2.90-6.93Q3.83-6.80 4.70-6.56L4.70-6.56L4.70-6.56Q5.58-6.33 6.33-5.68L6.33-5.68L6.33-5.68Q7.20-4.93 8.13-4.01L8.13-4.01L8.13-4.01Q9.05-3.10 9.83-2.23L9.83-2.23L9.83-2.23Q9.88-2.18 9.98-2.04L9.98-2.04L9.98-2.04Q10.08-1.90 10.03-1.83L10.03-1.83L10.03-1.83Q10-1.78 9.84-1.84L9.84-1.84L9.84-1.84Q9.68-1.90 9.63-1.95L9.63-1.95L9.63-1.95Q9.40-2.08 9.09-2.29L9.09-2.29L9.09-2.29Q8.78-2.50 8.45-2.75L8.45-2.75L8.45-2.75Q8.13-3 7.83-3.24L7.83-3.24L7.83-3.24Q7.53-3.48 7.33-3.68L7.33-3.68L7.33-3.68Q7.20-3.80 6.66-4.24L6.66-4.24L6.66-4.24Q6.13-4.67 5.40-5.16L5.40-5.16L5.40-5.16Q4.67-5.65 3.89-6.08L3.89-6.08L3.89-6.08Q3.10-6.50 2.48-6.65L2.48-6.65L2.48-6.65Q2.27-6.70 2.29-6.90L2.29-6.90L2.29-6.90Q2.30-7.10 2.33-7.25L2.33-7.25L2.33-7.25Q2.38-7.55 2.46-8L2.46-8L2.46-8Q2.55-8.45 2.64-8.93L2.64-8.93L2.64-8.93Q2.73-9.40 2.83-9.85L2.83-9.85L2.83-9.85Q2.93-10.30 3.03-10.63L3.03-10.63L3.03-10.63Q3.10-10.85 3.30-11.75L3.30-11.75L3.30-11.75Q3.50-12.65 3.70-13.75L3.70-13.75L3.70-13.75Q3.90-14.85 4-15.88L4-15.88L4-15.88Q4.10-16.90 3.98-17.38L3.98-17.38L3.98-17.38Q3.93-17.60 4-17.60L4-17.60L4-17.60Q4.05-17.60 4.08-17.54L4.08-17.54L4.08-17.54Q4.10-17.48 4.15-17.43L4.15-17.43L4.15-17.43Q4.42-17 4.58-16.40L4.58-16.40L4.58-16.40Q4.73-15.80 4.76-15.14L4.76-15.14L4.76-15.14Q4.80-14.48 4.74-13.83L4.74-13.83L4.74-13.83Q4.67-13.18 4.55-12.70L4.55-12.70L4.55-12.70Q4.28-11.65 3.93-10.61L3.93-10.61L3.93-10.61Q3.58-9.58 3.18-8.53L3.18-8.53L3.18-8.53Q3.45-8.93 3.70-9.29L3.70-9.29L3.70-9.29Q3.95-9.65 4.15-9.98L4.15-9.98L4.17-10.10L4.17-10.10Q4.42-11.30 4.79-12.53L4.79-12.53L4.79-12.53Q5.15-13.75 5.20-15.18L5.20-15.18L5.20-15.18Q5.25-15.30 5.28-15.30L5.28-15.30L5.28-15.30Q5.30-15.30 5.33-15.25L5.33-15.25L5.33-15.25Q5.35-15.20 5.38-15.15L5.38-15.15L5.38-15.15Q5.65-14.48 5.58-13.39L5.58-13.39L5.58-13.39Q5.50-12.30 5.28-11.13L5.28-11.13L5.28-11.13Q5.58-11.38 5.86-11.60L5.86-11.60L5.86-11.60Q6.15-11.83 6.50-12.05L6.50-12.05L6.50-12.05Q7.45-12.70 8.45-13.30L8.45-13.30L8.45-13.30Q9.45-13.90 10.39-14.53L10.39-14.53L10.39-14.53Q11.33-15.15 12.13-15.80L12.13-15.80L12.13-15.80Q12.93-16.45 13.50-17.23L13.50-17.23L13.50-17.23Q13.58-17.30 13.60-17.25L13.60-17.25L13.60-17.25Q13.63-17.25 13.61-17.19L13.61-17.19L13.61-17.19Q13.60-17.13 13.60-17.10L13.60-17.10L13.60-17.10Q13.23-16.07 12.46-15.29L12.46-15.29L12.46-15.29Q11.70-14.50 10.74-13.83L10.74-13.83L10.74-13.83Q9.78-13.15 8.72-12.55L8.72-12.55L8.72-12.55Q7.68-11.95 6.73-11.28L6.73-11.28L6.73-11.28Q5.55-10.48 4.53-9.38L4.53-9.38L4.53-9.38Q3.50-8.28 2.90-6.93ZM4.10-7.08L4.10-7.08L4.10-7.08Q3.98-7.08 3.76-7.09L3.76-7.09L3.76-7.09Q3.55-7.10 3.38-7.08L3.38-7.08L3.38-7.08Q3.48-7.28 3.61-7.48L3.61-7.48L3.61-7.48Q3.75-7.68 3.88-7.88L3.88-7.88L3.88-7.88Q4.03-8.08 4.24-8.31L4.24-8.31L4.24-8.31Q4.45-8.55 4.66-8.74L4.66-8.74L4.66-8.74Q4.88-8.93 5.04-9.01L5.04-9.01L5.04-9.01Q5.20-9.10 5.25-9L5.25-9L5.25-9Q5.28-8.97 5.21-8.88L5.21-8.88L5.21-8.88Q5.15-8.78 5.05-8.64L5.05-8.64L5.05-8.64Q4.95-8.50 4.86-8.39L4.86-8.39L4.86-8.39Q4.78-8.28 4.75-8.22L4.75-8.22L4.75-8.22Q4.48-7.88 4.35-7.61L4.35-7.61L4.35-7.61Q4.23-7.35 4.10-7.08ZM13.68-0.30L13.68-0.30L13.68-0.30Q13.63-0.25 13.54-0.29L13.54-0.29L13.54-0.29Q13.45-0.33 13.35-0.38L13.35-0.38L13.35-0.38Q12.63-0.70 11.99-1.18L11.99-1.18L11.99-1.18Q11.35-1.65 10.75-2.20L10.75-2.20L10.75-2.20Q10.15-2.75 9.56-3.34L9.56-3.34L9.56-3.34Q8.97-3.93 8.38-4.50L8.38-4.50L8.38-4.50Q7.95-4.90 7.48-5.33L7.48-5.33L7.48-5.33Q7-5.75 6.50-6.11L6.50-6.11L6.50-6.11Q6-6.48 5.46-6.74L5.46-6.74L5.46-6.74Q4.93-7 4.38-7.08L4.38-7.08L4.38-7.08Q4.70-7.55 5.43-8.15L5.43-8.15L5.43-8.15Q6.15-8.75 7-9.33L7-9.33L7-9.33Q7.85-9.90 8.68-10.43L8.68-10.43L8.68-10.43Q9.50-10.95 10.03-11.28L10.03-11.28L10.03-11.28Q10.90-11.83 11.79-12.45L11.79-12.45L11.79-12.45Q12.68-13.08 13.43-13.98L13.43-13.98L13.43-13.98Q13.50-14.08 13.58-14.05L13.58-14.05L13.58-14.05Q13.58-14 13.55-13.96L13.55-13.96L13.55-13.96Q13.53-13.93 13.53-13.88L13.53-13.88L13.53-13.88Q13.40-13.25 12.79-12.56L12.79-12.56L12.79-12.56Q12.18-11.88 11.40-11.25L11.40-11.25L11.40-11.25Q10.63-10.63 9.83-10.09L9.83-10.09L9.83-10.09Q9.03-9.55 8.55-9.22L8.55-9.22L8.55-9.22Q8.10-8.93 7.61-8.65L7.61-8.65L7.61-8.65Q7.13-8.38 6.63-8.11L6.63-8.11L6.63-8.11Q6.13-7.85 5.66-7.64L5.66-7.64L5.66-7.64Q5.20-7.43 4.80-7.25L4.80-7.25L4.80-7.25Q5.45-7.25 6.29-6.85L6.29-6.85L6.29-6.85Q7.13-6.45 7.95-5.89L7.95-5.89L7.95-5.89Q8.78-5.33 9.47-4.71L9.47-4.71L9.47-4.71Q10.18-4.10 10.55-3.70L10.55-3.70L10.55-3.70Q11.35-2.83 12.14-2L12.14-2L12.14-2Q12.93-1.18 13.53-0.58L13.53-0.58L13.53-0.58Q13.73-0.38 13.68-0.30ZM3.43-18.05L3.43-18.05L3.43-18.05Q3.78-16.85 3.65-15.56L3.65-15.56L3.65-15.56Q3.53-14.28 3.16-12.93L3.16-12.93L3.16-12.93Q2.80-11.58 2.35-10.18L2.35-10.18L2.35-10.18Q1.90-8.78 1.58-7.40L1.58-7.40L1.58-7.40Q1.38-6.53 1.26-5.58L1.26-5.58L1.26-5.58Q1.15-4.63 1.19-3.66L1.19-3.66L1.19-3.66Q1.23-2.70 1.41-1.79L1.41-1.79L1.41-1.79Q1.60-0.88 2.02-0.10L2.02-0.10L2.02-0.10Q2.13 0.10 2.10 0.10L2.10 0.10L2.10 0.10Q2.05 0.10 2 0.05L2 0.05L2 0.05Q1.95 0 1.93 0L1.93 0L1.93 0Q1.23-0.83 0.90-1.79L0.90-1.79L0.90-1.79Q0.58-2.75 0.50-3.78L0.50-3.78L0.50-3.78Q0.43-4.80 0.56-5.85L0.56-5.85L0.56-5.85Q0.70-6.90 0.93-7.90L0.93-7.90L0.93-7.90Q1.25-9.28 1.68-10.64L1.68-10.64L1.68-10.64Q2.10-12 2.46-13.29L2.46-13.29L2.46-13.29Q2.83-14.58 3.08-15.78L3.08-15.78L3.08-15.78Q3.33-16.98 3.30-18.07L3.30-18.07L3.30-18.07Q3.30-18.23 3.33-18.23L3.33-18.23L3.33-18.23Q3.35-18.25 3.39-18.16L3.39-18.16L3.39-18.16Q3.43-18.07 3.43-18.05ZM15.25 0.50L15.25 0.50L15.25 0.50Q15.25 0.55 15.20 0.58L15.20 0.58L15.20 0.58Q15.15 0.60 15.10 0.63L15.10 0.63L15.10 0.63Q14.15 0.98 13.26 0.94L13.26 0.94L13.26 0.94Q12.38 0.90 11.54 0.64L11.54 0.64L11.54 0.64Q10.70 0.38 9.94-0.05L9.94-0.05L9.94-0.05Q9.18-0.48 8.50-0.90L8.50-0.90L8.50-0.90Q7.83-1.33 7.20-1.88L7.20-1.88L7.20-1.88Q6.58-2.43 5.98-3L5.98-3L5.98-3Q5.38-3.58 4.79-4.13L4.79-4.13L4.79-4.13Q4.20-4.67 3.63-5.10L3.63-5.10L2.85-2.50L2.85-2.50Q2.80-2.38 2.76-2.27L2.76-2.27L2.76-2.27Q2.73-2.18 2.68-2.20L2.68-2.20L2.68-2.20Q2.63-2.23 2.61-2.34L2.61-2.34L2.61-2.34Q2.60-2.45 2.60-2.58L2.60-2.58L2.60-2.58Q2.63-3.30 2.73-4.05L2.73-4.05L2.73-4.05Q2.83-4.80 2.98-5.55L2.98-5.55L2.98-5.55Q2.83-5.65 2.60-5.78L2.60-5.78L2.60-5.78Q2.38-5.90 2.18-6.03L2.18-6.03L2.18-6.03Q2.13-6.05 2.05-6.11L2.05-6.11L2.05-6.11Q1.98-6.18 2-6.23L2-6.23L2-6.23Q2-6.25 2.13-6.25L2.13-6.25L2.13-6.25Q3.03-6.18 3.89-5.66L3.89-5.66L3.89-5.66Q4.75-5.15 5.61-4.44L5.61-4.44L5.61-4.44Q6.48-3.73 7.35-2.90L7.35-2.90L7.35-2.90Q8.22-2.08 9.18-1.33L9.18-1.33L9.18-1.33Q10.38-0.40 11.93 0.14L11.93 0.14L11.93 0.14Q13.48 0.68 15.08 0.48L15.08 0.48L15.08 0.48Q15.25 0.43 15.25 0.50ZM2.80 0.10L2.80 0.10L2.80 0.10Q2.75 0.10 2.65 0.05L2.65 0.05L2.65 0.05Q2.60 0.03 2.58-0.03L2.58-0.03L2.58-0.03Q2.25-0.40 2.06-0.73L2.06-0.73L2.06-0.73Q1.88-1.05 1.75-1.78L1.75-1.78L1.75-1.78Q1.70-2.05 1.69-2.48L1.69-2.48L1.69-2.48Q1.68-2.90 1.70-3.30L1.70-3.30L1.70-3.30Q1.73-3.70 1.79-3.98L1.79-3.98L1.79-3.98Q1.85-4.25 1.95-4.25L1.95-4.25L1.95-4.25Q1.98-4.25 2.01-4.13L2.01-4.13L2.01-4.13Q2.05-4 2.08-3.84L2.08-3.84L2.08-3.84Q2.10-3.68 2.11-3.51L2.11-3.51L2.11-3.51Q2.13-3.35 2.13-3.30L2.13-3.30L2.13-3.30Q2.18-2.75 2.21-2.40L2.21-2.40L2.21-2.40Q2.25-2.05 2.30-1.78L2.30-1.78L2.30-1.78Q2.43-0.98 2.80-0.10L2.80-0.10L2.80-0.10Q2.83-0.05 2.84 0.03L2.84 0.03L2.84 0.03Q2.85 0.10 2.80 0.10ZM11.85-0.40L11.85-0.40L11.85-0.40Q12.03-0.38 12.29-0.31L12.29-0.31L12.29-0.31Q12.55-0.25 12.70-0.20L12.70-0.20L12.70-0.20Q13.35-0.03 13.79 0.06L13.79 0.06L13.79 0.06Q14.23 0.15 14.83 0.18L14.83 0.18L14.83 0.18Q14.88 0.18 14.96 0.18L14.96 0.18L14.96 0.18Q15.05 0.18 15.05 0.23L15.05 0.23L15.05 0.23Q15.05 0.33 14.80 0.35L14.80 0.35L14.80 0.35Q14.50 0.40 14.28 0.40L14.28 0.40L14.28 0.40Q14.05 0.40 13.70 0.38L13.70 0.38L13.70 0.38Q13.50 0.35 13.23 0.30L13.23 0.30L13.23 0.30Q12.95 0.25 12.68 0.16L12.68 0.16L12.68 0.16Q12.40 0.08 12.16-0.01L12.16-0.01L12.16-0.01Q11.93-0.10 11.83-0.20L11.83-0.20L11.83-0.20Q11.73-0.30 11.75-0.38L11.75-0.38L11.75-0.38Q11.75-0.40 11.85-0.40ZM17.90-8.33L17.90-8.33L17.90-8.33Q17.70-7.48 17.34-6.54L17.34-6.54L17.34-6.54Q16.98-5.60 16.52-4.80L16.52-4.80L16.52-4.80Q16.52-4.75 16.46-4.64L16.46-4.64L16.46-4.64Q16.40-4.53 16.30-4.53L16.30-4.53L16.30-4.53Q16.25-4.53 16.24-4.67L16.24-4.67L16.24-4.67Q16.23-4.83 16.25-4.88L16.25-4.88L16.25-4.88Q16.25-5.28 16.35-5.94L16.35-5.94L16.35-5.94Q16.45-6.60 16.60-7.03L16.60-7.03L16.60-7.03Q16.65-7.18 16.76-7.75L16.76-7.75L16.76-7.75Q16.88-8.33 16.96-9.04L16.96-9.04L16.96-9.04Q17.05-9.75 17.06-10.41L17.06-10.41L17.06-10.41Q17.07-11.08 16.90-11.40L16.90-11.40L16.90-11.50L16.90-11.50Q17-11.58 17.13-11.45L17.13-11.45L17.13-11.45Q17.45-11.18 17.64-10.78L17.64-10.78L17.64-10.78Q17.82-10.38 17.91-9.94L17.91-9.94L17.91-9.94Q18-9.50 17.99-9.08L17.99-9.08L17.99-9.08Q17.98-8.65 17.90-8.33ZM18.88-8.43L18.88-8.43L18.88-8.43Q19.15-8.78 19.40-8.93L19.40-8.93L19.40-8.93Q19.65-9.08 19.90-9.18L19.90-9.18L19.90-9.18Q19.93-9.18 20.02-9.20L20.02-9.20L20.02-9.20Q20.13-9.22 20.18-9.15L20.18-9.15L20.18-9.15Q20.23-9.08 20.15-8.97L20.15-8.97L20.15-8.97Q20.08-8.88 20.02-8.83L20.02-8.83L20.02-8.83Q19.85-8.65 19.64-8.44L19.64-8.44L19.64-8.44Q19.43-8.22 19.25-8.03L19.25-8.03L19.25-8.03Q19-7.75 18.85-7.39L18.85-7.39L18.85-7.39Q18.70-7.03 18.63-6.65L18.63-6.65L18.63-6.65Q19.05-7.10 19.44-7.50L19.44-7.50L19.44-7.50Q19.83-7.90 20.27-8.25L20.27-8.25L20.27-8.25Q20.85-8.68 21.27-9.35L21.27-9.35L21.27-9.35Q21.70-10.03 21.88-11.33L21.88-11.33L21.88-11.33Q21.93-11.45 22-11.48L22-11.48L22-11.48Q22.08-11.50 22.08-11.30L22.08-11.30L22.08-11.30Q22.15-9.85 21.77-9L21.77-9L21.77-9Q21.40-8.15 20.65-7.58L20.65-7.58L20.65-7.58Q20.25-7.28 19.85-6.93L19.85-6.93L19.85-6.93Q19.45-6.58 19.09-6.15L19.09-6.15L19.09-6.15Q18.73-5.73 18.43-5.15L18.43-5.15L18.43-5.15Q18.13-4.58 17.90-3.83L17.90-3.83L17.90-3.83Q17.73-3.25 17.55-2.74L17.55-2.74L17.55-2.74Q17.38-2.23 17.18-1.75L17.18-1.75L17.18-1.75Q17.13-1.58 17.02-1.58L17.02-1.58L17.02-1.58Q16.95-1.60 16.95-1.83L16.95-1.83L16.95-1.83Q16.82-3.03 17.11-4.21L17.11-4.21L17.11-4.21Q17.40-5.40 17.80-6.68L17.80-6.68L17.80-6.68Q17.98-7.30 18.21-7.93L18.21-7.93L18.21-7.93Q18.45-8.55 18.43-9.35L18.43-9.35L18.43-9.35Q18.43-9.63 18.65-9.93L18.65-9.93L18.65-9.93Q18.88-10.23 19.20-10.49L19.20-10.49L19.20-10.49Q19.52-10.75 19.88-10.94L19.88-10.94L19.88-10.94Q20.23-11.13 20.48-11.20L20.48-11.20L20.48-11.20Q20.70-11.28 20.70-11.18L20.70-11.18L20.70-11.18Q20.70-11.08 20.55-10.93L20.55-10.93L20.55-10.93Q20.02-10.45 19.49-9.80L19.49-9.80L19.49-9.80Q18.95-9.15 18.88-8.43ZM16.70-0.03L16.70-0.03L16.70-0.03Q16.68 0 16.66-0.01L16.66-0.01L16.66-0.01Q16.65-0.03 16.52-0.10L16.52-0.10L16.52-0.10Q15.78-0.65 15.35-1.30L15.35-1.30L15.35-1.30Q14.93-1.95 14.74-2.64L14.74-2.64L14.74-2.64Q14.55-3.33 14.58-4.01L14.58-4.01L14.58-4.01Q14.60-4.70 14.75-5.35L14.75-5.35L14.75-5.35Q14.95-6.23 15.24-7.09L15.24-7.09L15.24-7.09Q15.53-7.95 15.78-8.76L15.78-8.76L15.78-8.76Q16.02-9.58 16.15-10.36L16.15-10.36L16.15-10.36Q16.27-11.15 16.15-11.88L16.15-11.88L16.15-11.88Q16.15-11.93 16.23-11.95L16.23-11.95L16.23-11.95Q16.25-11.95 16.27-11.91L16.27-11.91L16.27-11.91Q16.30-11.88 16.32-11.85L16.32-11.85L16.32-11.85Q16.80-11.05 16.80-10.21L16.80-10.21L16.80-10.21Q16.80-9.38 16.57-8.51L16.57-8.51L16.57-8.51Q16.35-7.65 16.01-6.76L16.01-6.76L16.01-6.76Q15.68-5.88 15.48-4.98L15.48-4.98L15.48-4.98Q15.22-3.83 15.44-2.53L15.44-2.53L15.44-2.53Q15.65-1.23 16.60-0.20L16.60-0.20L16.60-0.20Q16.65-0.13 16.70-0.10L16.70-0.10L16.70-0.10Q16.75-0.08 16.70-0.03ZM17.45 0L17.45 0L17.45 0Q17.40 0 17.35-0.03L17.35-0.03L17.25-0.08L17.25-0.08Q16.90-0.30 16.63-0.56L16.63-0.56L16.63-0.56Q16.35-0.83 16.15-1.33L16.15-1.33L16.15-1.33Q16.07-1.50 16.02-1.79L16.02-1.79L16.02-1.79Q15.98-2.08 15.96-2.33L15.96-2.33L15.96-2.33Q15.95-2.58 15.99-2.75L15.99-2.75L15.99-2.75Q16.02-2.93 16.13-2.90L16.13-2.90L16.13-2.90Q16.20-2.90 16.29-2.70L16.29-2.70L16.29-2.70Q16.38-2.50 16.43-2.30L16.43-2.30L16.43-2.30Q16.48-2.02 16.54-1.78L16.54-1.78L16.54-1.78Q16.60-1.53 16.70-1.33L16.70-1.33L16.70-1.33Q16.98-0.70 17.43-0.13L17.43-0.13L17.43-0.13Q17.48 0 17.45 0ZM21.52-11.23L21.52-11.23L21.52-11.23Q21.52-10.70 21.23-10.30L21.23-10.30L21.23-10.30Q20.93-9.90 20.50-9.63L20.50-9.63L20.50-9.63Q20.43-9.58 20.40-9.64L20.40-9.64L20.40-9.64Q20.38-9.70 20.38-9.73L20.38-9.73L20.38-9.73Q20.38-9.88 20.50-10.09L20.50-10.09L20.50-10.09Q20.63-10.30 20.79-10.54L20.79-10.54L20.79-10.54Q20.95-10.78 21.10-11.03L21.10-11.03L21.10-11.03Q21.25-11.28 21.30-11.48L21.30-11.48L21.30-11.48Q21.38-11.60 21.45-11.48L21.45-11.48L21.45-11.48Q21.52-11.35 21.52-11.23ZM31.60-8.80L31.60-8.80L31.60-8.80Q31.40-7.80 30.92-6.80L30.92-6.80L30.92-6.80Q30.45-5.80 30.02-4.93L30.02-4.93L30.02-4.93Q30-4.88 29.91-4.75L29.91-4.75L29.91-4.75Q29.82-4.63 29.77-4.63L29.77-4.63L29.77-4.63Q29.70-4.65 29.70-4.79L29.70-4.79L29.70-4.79Q29.70-4.93 29.70-4.98L29.70-4.98L29.70-4.98Q29.73-5.20 29.79-5.51L29.79-5.51L29.79-5.51Q29.85-5.83 29.90-6.16L29.90-6.16L29.90-6.16Q29.95-6.50 30.01-6.81L30.01-6.81L30.01-6.81Q30.07-7.13 30.15-7.38L30.15-7.38L30.15-7.38Q30.38-8.22 30.52-8.84L30.52-8.84L30.52-8.84Q30.67-9.45 30.75-9.95L30.75-9.95L30.75-9.95Q30.82-10.45 30.84-10.90L30.84-10.90L30.84-10.90Q30.85-11.35 30.77-11.88L30.77-11.88L30.77-11.88Q30.75-12.08 30.80-12.13L30.80-12.13L30.80-12.13Q30.85-12.15 30.92-12.08L30.92-12.08L30.92-12.08Q31-12 31.05-11.93L31.05-11.93L31.05-11.93Q31.48-11.25 31.63-10.44L31.63-10.44L31.63-10.44Q31.77-9.63 31.60-8.80ZM32.10-10.63L32.20-10.48L32.20-10.48Q32.52-10 32.52-9.22L32.52-9.22L32.52-9.22Q32.52-8.45 32.38-7.64L32.38-7.64L32.38-7.64Q32.23-6.83 32-6.08L32-6.08L32-6.08Q31.77-5.33 31.67-4.88L31.67-4.88L31.67-4.88Q31.48-4 31.13-3.13L31.13-3.13L31.13-3.13Q30.77-2.25 30.52-1.58L30.52-1.58L30.52-1.58Q30.50-1.50 30.45-1.41L30.45-1.41L30.45-1.41Q30.40-1.33 30.35-1.33L30.35-1.33L30.35-1.33Q30.30-1.33 30.30-1.43L30.30-1.43L30.30-1.43Q30.30-1.53 30.30-1.60L30.30-1.60L30.30-1.60Q30.23-2.98 30.60-4.29L30.60-4.29L30.60-4.29Q30.98-5.60 31.40-6.95L31.40-6.95L31.40-6.95Q31.65-7.78 31.88-8.64L31.88-8.64L31.88-8.64Q32.10-9.50 32.08-10.53L32.08-10.53L32.08-10.53Q32.08-10.63 32.10-10.63L32.10-10.63ZM29.85-10.90L29.85-10.90L29.85-10.90Q28.32-10.28 27.26-9.11L27.26-9.11L27.26-9.11Q26.20-7.95 25.63-6.50L25.63-6.50L25.63-6.50Q25.38-5.85 25.25-5.34L25.25-5.34L25.25-5.34Q25.13-4.83 25.05-4.23L25.05-4.23L25.05-4.23Q25.02-4.10 25.13-3.98L25.13-3.98L25.13-3.98Q25.22-3.85 25.32-3.98L25.32-3.98L25.32-3.98Q25.77-4.53 26.47-5.38L26.47-5.38L26.47-5.38Q27.17-6.23 27.88-7.18L27.88-7.18L27.88-7.18Q28.57-8.13 29.14-9.10L29.14-9.10L29.14-9.10Q29.70-10.08 29.85-10.90ZM28.17-2.43L28.17-2.43L28.17-2.43Q27.80-1.90 27.45-1.45L27.45-1.45L27.45-1.45Q27.10-1 26.67-0.66L26.67-0.66L26.67-0.66Q26.25-0.33 25.72-0.13L25.72-0.13L25.72-0.13Q25.20 0.08 24.52 0.10L24.52 0.10L24.52 0.10Q23.40 0.15 22.81-0.48L22.81-0.48L22.81-0.48Q22.22-1.10 22-2L22-2L22-2Q21.77-2.90 21.84-3.86L21.84-3.86L21.84-3.86Q21.90-4.83 22.10-5.45L22.10-5.45L22.10-5.45Q22.38-6.33 22.76-7.11L22.76-7.11L22.76-7.11Q23.15-7.90 23.59-8.54L23.59-8.54L23.59-8.54Q24.02-9.18 24.49-9.64L24.49-9.64L24.49-9.64Q24.95-10.10 25.40-10.35L25.40-10.35L25.40-10.35Q25.42-10.35 25.51-10.40L25.51-10.40L25.51-10.40Q25.60-10.45 25.60-10.38L25.60-10.38L25.60-10.38Q25.63-10.38 25.57-10.30L25.57-10.30L25.57-10.30Q25.52-10.23 25.47-10.18L25.47-10.18L25.47-10.18Q24.17-8.83 23.41-7.13L23.41-7.13L23.41-7.13Q22.65-5.43 22.55-3.63L22.55-3.63L22.55-3.63Q22.52-3.18 22.59-2.65L22.59-2.65L22.59-2.65Q22.65-2.13 22.84-1.66L22.84-1.66L22.84-1.66Q23.02-1.20 23.38-0.89L23.38-0.89L23.38-0.89Q23.72-0.58 24.32-0.58L24.32-0.58L24.32-0.58Q24.80-0.58 25.20-0.74L25.20-0.74L25.20-0.74Q25.60-0.90 25.95-1.16L25.95-1.16L25.95-1.16Q26.30-1.43 26.59-1.74L26.59-1.74L26.59-1.74Q26.88-2.05 27.10-2.33L27.10-2.33L27.10-2.33Q27.60-2.95 28.02-3.63L28.02-3.63L28.02-3.63Q28.02-4.13 28.09-4.60L28.09-4.60L28.09-4.60Q28.15-5.08 28.27-5.55L28.27-5.55L28.27-5.55Q28.35-5.90 28.41-6.11L28.41-6.11L28.41-6.11Q28.47-6.33 28.54-6.51L28.54-6.51L28.54-6.51Q28.60-6.70 28.66-6.91L28.66-6.91L28.66-6.91Q28.72-7.13 28.85-7.48L28.85-7.48L28.85-7.48Q28.45-6.78 28.06-6.16L28.06-6.16L28.06-6.16Q27.67-5.55 27.24-4.99L27.24-4.99L27.24-4.99Q26.80-4.42 26.34-3.89L26.34-3.89L26.34-3.89Q25.88-3.35 25.32-2.80L25.32-2.80L25.32-2.80Q24.90-2.38 24.63-2.53L24.63-2.53L24.63-2.53Q24.35-2.68 24.30-3.23L24.30-3.23L24.30-3.23Q24.25-4.08 24.39-4.88L24.39-4.88L24.39-4.88Q24.52-5.68 24.88-6.55L24.88-6.55L24.88-6.55Q25.20-7.35 25.69-8.10L25.69-8.10L25.69-8.10Q26.17-8.85 26.81-9.46L26.81-9.46L26.81-9.46Q27.45-10.08 28.22-10.51L28.22-10.51L28.22-10.51Q29-10.95 29.88-11.10L29.88-11.10L29.88-11.10Q29.92-11.38 29.96-11.58L29.96-11.58L29.96-11.58Q30-11.78 30.02-11.98L30.02-11.98L30.02-11.98Q30.07-12.25 30.07-12.25L30.07-12.25L30.07-12.25Q30.13-12.28 30.19-12.20L30.19-12.20L30.19-12.20Q30.25-12.13 30.30-12L30.30-12L30.30-12Q30.60-11.18 30.50-10.35L30.50-10.35L30.50-10.35Q30.40-9.53 30.14-8.68L30.14-8.68L30.14-8.68Q29.88-7.83 29.52-6.94L29.52-6.94L29.52-6.94Q29.17-6.05 28.95-5.15L28.95-5.15L28.95-5.15Q28.65-3.88 28.79-2.51L28.79-2.51L28.79-2.51Q28.92-1.15 29.85-0.05L29.85-0.05L29.85-0.05Q29.92 0.05 29.92 0.05L29.92 0.05L29.92 0.05Q29.90 0.08 29.77 0L29.77 0L29.77 0Q29.05-0.45 28.69-1.09L28.69-1.09L28.69-1.09Q28.32-1.73 28.17-2.43ZM29.05-11.28L29.05-11.28L29.05-11.28Q29.10-11.23 29.04-11.20L29.04-11.20L29.04-11.20Q28.97-11.18 28.77-11.13L28.77-11.13L28.77-11.13Q28.45-11.03 27.99-10.75L27.99-10.75L27.99-10.75Q27.52-10.48 27.01-10.05L27.01-10.05L27.01-10.05Q26.50-9.63 26-9.06L26-9.06L26-9.06Q25.50-8.50 25.13-7.85L25.13-7.85L25.13-7.85Q24.75-7.18 24.49-6.53L24.49-6.53L24.49-6.53Q24.22-5.88 24.06-5.34L24.06-5.34L24.06-5.34Q23.90-4.80 23.82-4.41L23.82-4.41L23.82-4.41Q23.75-4.03 23.75-3.88L23.75-3.88L23.75-3.88Q23.75-3.50 23.75-3.09L23.75-3.09L23.75-3.09Q23.75-2.68 23.85-2.35L23.85-2.35L23.85-2.35Q23.95-2.02 24.20-1.85L24.20-1.85L24.20-1.85Q24.45-1.68 24.95-1.75L24.95-1.75L24.95-1.75Q24.97-1.75 25.07-1.79L25.07-1.79L25.07-1.79Q25.17-1.83 25.27-1.86L25.27-1.86L25.27-1.86Q25.38-1.90 25.46-1.93L25.46-1.93L25.46-1.93Q25.55-1.95 25.57-1.95L25.57-1.95L25.57-1.95Q25.60-1.90 25.54-1.83L25.54-1.83L25.54-1.83Q25.47-1.75 25.38-1.66L25.38-1.66L25.38-1.66Q25.27-1.58 25.19-1.50L25.19-1.50L25.19-1.50Q25.10-1.43 25.07-1.40L25.07-1.40L25.07-1.40Q24.45-1.03 24.02-1.18L24.02-1.18L24.02-1.18Q23.60-1.33 23.36-1.74L23.36-1.74L23.36-1.74Q23.13-2.15 23.04-2.71L23.04-2.71L23.04-2.71Q22.95-3.28 22.97-3.73L22.97-3.73L22.97-3.73Q23.02-4.60 23.25-5.46L23.25-5.46L23.25-5.46Q23.47-6.33 23.82-7.20L23.82-7.20L23.82-7.20Q24.10-7.88 24.65-8.59L24.65-8.59L24.65-8.59Q25.20-9.30 25.89-9.90L25.89-9.90L25.89-9.90Q26.57-10.50 27.32-10.89L27.32-10.89L27.32-10.89Q28.07-11.28 28.77-11.30L28.77-11.30L28.77-11.30Q29.02-11.30 29.05-11.28ZM30.52-0.05L30.52-0.05L30.52-0.05Q30.57 0.03 30.55 0.05L30.55 0.05L30.55 0.05Q30.48 0.05 30.35 0L30.35 0L30.35 0Q30.27-0.05 29.95-0.30L29.95-0.30L29.95-0.30Q29.63-0.55 29.47-1.10L29.47-1.10L29.47-1.10Q29.42-1.30 29.39-1.61L29.39-1.61L29.39-1.61Q29.35-1.93 29.35-2.20L29.35-2.20L29.35-2.20Q29.35-2.48 29.39-2.68L29.39-2.68L29.39-2.68Q29.42-2.88 29.50-2.88L29.50-2.88L29.50-2.88Q29.57-2.88 29.66-2.58L29.66-2.58L29.66-2.58Q29.75-2.27 29.77-2.20L29.77-2.20L29.77-2.20Q29.85-1.85 29.91-1.59L29.91-1.59L29.91-1.59Q29.98-1.33 30.05-1.10L30.05-1.10L30.05-1.10Q30.15-0.83 30.31-0.48L30.31-0.48L30.31-0.48Q30.48-0.13 30.52-0.05ZM35.55-9.22L35.55-9.22L35.55-9.22Q35.58-9.45 35.70-9.76L35.70-9.76L35.70-9.76Q35.83-10.08 36.04-10.36L36.04-10.36L36.04-10.36Q36.25-10.65 36.55-10.89L36.55-10.89L36.55-10.89Q36.85-11.13 37.23-11.20L37.23-11.20L37.23-11.20Q38.03-11.35 38.55-11.10L38.55-11.10L38.55-11.10Q39.08-10.85 39.35-10.53L39.35-10.53L39.35-10.53Q39.45-10.38 39.43-10.35L39.43-10.35L39.43-10.35Q39.38-10.30 39.25-10.38L39.25-10.38L39.25-10.38Q39.10-10.48 38.76-10.55L38.76-10.55L38.76-10.55Q38.43-10.63 38.04-10.59L38.04-10.59L38.04-10.59Q37.65-10.55 37.29-10.35L37.29-10.35L37.29-10.35Q36.93-10.15 36.70-9.70L36.70-9.70L36.70-9.70Q36.50-9.28 36.43-8.83L36.43-8.83L36.43-8.83Q36.35-8.38 36.34-7.99L36.34-7.99L36.34-7.99Q36.33-7.60 36.35-7.33L36.35-7.33L36.35-7.33Q36.38-7.05 36.38-6.95L36.38-6.95L36.38-6.95Q36.43-6.68 36.46-6.26L36.46-6.26L36.46-6.26Q36.50-5.85 36.50-5.43L36.50-5.43L36.50-5.43Q36.50-5 36.48-4.59L36.48-4.59L36.48-4.59Q36.45-4.17 36.38-3.88L36.38-3.88L36.38-3.88Q36.35-3.80 36.31-3.63L36.31-3.63L36.31-3.63Q36.27-3.45 36.23-3.45L36.23-3.45L36.23-3.45Q36.10-3.45 36.10-3.63L36.10-3.63L36.10-3.63Q36.10-3.80 36.10-3.88L36.10-3.88L36.10-3.88Q36.05-4.50 35.93-5.14L35.93-5.14L35.93-5.14Q35.80-5.78 35.69-6.45L35.69-6.45L35.69-6.45Q35.58-7.13 35.52-7.81L35.52-7.81L35.52-7.81Q35.48-8.50 35.55-9.22ZM34.68-4.28L34.68-4.28L34.68-4.28Q34.70-4.78 34.59-5.69L34.59-5.69L34.59-5.69Q34.48-6.60 34.50-7.80L34.50-7.80L34.50-7.80Q34.52-8.43 34.63-9.09L34.63-9.09L34.63-9.09Q34.73-9.75 35.10-10.40L35.10-10.40L35.10-10.40Q35.50-11.10 36.11-11.44L36.11-11.44L36.11-11.44Q36.73-11.78 37.18-11.75L37.18-11.75L37.18-11.75Q37.25-11.75 37.33-11.75L37.33-11.75L37.33-11.75Q37.40-11.75 37.40-11.73L37.40-11.73L37.40-11.73Q37.40-11.68 37.38-11.69L37.38-11.69L37.38-11.69Q37.35-11.70 37.20-11.65L37.20-11.65L37.20-11.65Q36.75-11.53 36.40-11.24L36.40-11.24L36.40-11.24Q36.05-10.95 35.80-10.58L35.80-10.58L35.80-10.58Q35.55-10.20 35.40-9.80L35.40-9.80L35.40-9.80Q35.25-9.40 35.23-9.08L35.23-9.08L35.23-9.08Q35.08-7.70 35.25-6.68L35.25-6.68L35.25-6.68Q35.38-5.85 35.45-4.96L35.45-4.96L35.45-4.96Q35.52-4.08 35.39-3.34L35.39-3.34L35.39-3.34Q35.25-2.60 34.86-2.11L34.86-2.11L34.86-2.11Q34.48-1.63 33.68-1.58L33.68-1.58L33.68-1.58Q33.60-1.58 33.49-1.59L33.49-1.59L33.49-1.59Q33.38-1.60 33.38-1.65L33.38-1.65L33.38-1.65Q33.38-1.70 33.60-1.83L33.60-1.83L33.60-1.83Q34.25-2.13 34.45-2.70L34.45-2.70L34.45-2.70Q34.65-3.28 34.68-4.28ZM32.02-1.33L32.02-1.33L32.02-1.33Q32.38-0.78 33.14-0.51L33.14-0.51L33.14-0.51Q33.90-0.25 34.95-0.55L34.95-0.55L34.95-0.55Q35.48-0.70 35.88-1.07L35.88-1.07L35.88-1.07Q36.27-1.45 36.54-1.91L36.54-1.91L36.54-1.91Q36.80-2.38 36.94-2.88L36.94-2.88L36.94-2.88Q37.08-3.38 37.10-3.80L37.10-3.80L37.10-3.80Q37.13-4.50 37.06-5.18L37.06-5.18L37.06-5.18Q37-5.85 36.91-6.49L36.91-6.49L36.91-6.49Q36.83-7.13 36.76-7.73L36.76-7.73L36.76-7.73Q36.70-8.33 36.75-8.90L36.75-8.90L36.75-8.90Q36.80-9.53 37.10-9.85L37.10-9.85L37.10-9.85Q37.40-10.18 37.84-10.26L37.84-10.26L37.84-10.26Q38.28-10.35 38.75-10.20L38.75-10.20L38.75-10.20Q39.23-10.05 39.63-9.73L39.63-9.73L39.63-9.73Q39.73-9.68 39.70-9.60L39.70-9.60L39.70-9.60Q39.70-9.55 39.65-9.58L39.65-9.58L39.65-9.58Q39.60-9.60 39.55-9.63L39.55-9.63L39.55-9.63Q38.63-9.93 38.11-9.80L38.11-9.80L38.11-9.80Q37.60-9.68 37.55-8.90L37.55-8.90L37.55-8.90Q37.50-8 37.69-6.79L37.69-6.79L37.69-6.79Q37.88-5.58 37.83-4.10L37.83-4.10L37.83-4.10Q37.85-3.60 37.71-2.95L37.71-2.95L37.71-2.95Q37.58-2.30 37.26-1.69L37.26-1.69L37.26-1.69Q36.95-1.07 36.44-0.60L36.44-0.60L36.44-0.60Q35.93-0.13 35.23 0L35.23 0L35.23 0Q33.90 0.20 33.11-0.15L33.11-0.15L33.11-0.15Q32.33-0.50 31.98-1.23L31.98-1.23L31.98-1.23Q31.93-1.38 31.93-1.40L31.93-1.40L31.95-1.40L31.95-1.40Q31.95-1.40 32.02-1.33ZM33.13-1.33L33.13-1.33L33.13-1.33Q33.60-1.20 34.27-1.23L34.27-1.23L34.27-1.23Q34.50-1.25 34.83-1.35L34.83-1.35L34.83-1.35Q35.15-1.45 35.18-1.40L35.18-1.40L35.18-1.40Q35.25-1.30 35.02-1.15L35.02-1.15L35.02-1.15Q34.80-1 34.45-0.89L34.45-0.89L34.45-0.89Q34.10-0.78 33.73-0.74L33.73-0.74L33.73-0.74Q33.35-0.70 33.10-0.80L33.10-0.80L33.10-0.80Q32.63-1 32.41-1.24L32.41-1.24L32.41-1.24Q32.20-1.48 32.02-1.83L32.02-1.83L31.98-1.93L31.98-1.93Q31.93-2.02 31.95-2.05L31.95-2.05L31.95-2.05Q31.98-2.08 32.02-2.05L32.02-2.05L32.02-2.05Q32.05-2.02 32.05-2L32.05-2L32.05-2Q32.35-1.73 32.56-1.59L32.56-1.59L32.56-1.59Q32.77-1.45 33.13-1.33ZM48.05-8.97L48.05-8.97L48.05-8.97Q48.10-8.20 47.95-7.49L47.95-7.49L47.95-7.49Q47.80-6.78 47.58-6.18L47.58-6.18L47.58-6.18Q47.52-6.05 47.41-5.90L47.41-5.90L47.41-5.90Q47.30-5.75 47.20-5.80L47.20-5.80L47.20-5.80Q47.15-5.80 47.17-5.98L47.17-5.98L47.17-5.98Q47.20-6.15 47.20-6.23L47.20-6.23L47.20-6.23Q47.23-6.50 47.24-6.91L47.24-6.91L47.24-6.91Q47.25-7.33 47.25-7.75L47.25-7.75L47.25-7.75Q47.25-8.18 47.21-8.56L47.21-8.56L47.21-8.56Q47.17-8.95 47.10-9.22L47.10-9.22L47.10-9.22Q46.88-10.03 46.39-10.11L46.39-10.11L46.39-10.11Q45.90-10.20 45.40-9.85L45.40-9.85L45.40-9.85Q44.90-9.50 44.45-8.88L44.45-8.88L44.45-8.88Q44-8.25 43.85-7.65L43.85-7.65L43.85-7.65Q44-7.88 44.24-8.19L44.24-8.19L44.24-8.19Q44.48-8.50 44.77-8.79L44.77-8.79L44.77-8.79Q45.08-9.08 45.41-9.26L45.41-9.26L45.41-9.26Q45.75-9.45 46.05-9.43L46.05-9.43L46.05-9.43Q46.38-9.40 46.51-9.08L46.51-9.08L46.51-9.08Q46.65-8.75 46.67-8.28L46.67-8.28L46.67-8.28Q46.70-7.80 46.63-7.25L46.63-7.25L46.63-7.25Q46.55-6.70 46.45-6.23L46.45-6.23L46.45-6.23Q46.27-5.45 46.15-4.63L46.15-4.63L46.15-4.63Q46.02-3.80 46.06-3.01L46.06-3.01L46.06-3.01Q46.10-2.23 46.34-1.49L46.34-1.49L46.34-1.49Q46.58-0.75 47.15-0.13L47.15-0.13L47.15-0.13Q47.20-0.05 47.23 0L47.23 0L47.23 0Q47.25 0.05 47.10-0.03L47.10-0.03L47.10-0.03Q46.45-0.40 46.06-0.90L46.06-0.90L46.06-0.90Q45.67-1.40 45.48-1.98L45.48-1.98L45.48-1.98Q45.27-2.55 45.24-3.18L45.24-3.18L45.24-3.18Q45.20-3.80 45.25-4.42L45.25-4.42L45.25-4.42Q45.35-5.33 45.55-6L45.55-6L45.55-6Q45.75-6.68 45.85-7.53L45.85-7.53L45.85-7.53Q45.90-8.05 45.77-8.21L45.77-8.21L45.77-8.21Q45.65-8.38 45.48-8.40L45.48-8.40L45.48-8.40Q45.23-8.43 44.91-8.14L44.91-8.14L44.91-8.14Q44.60-7.85 44.26-7.33L44.26-7.33L44.26-7.33Q43.92-6.80 43.61-6.10L43.61-6.10L43.61-6.10Q43.30-5.40 43.08-4.63L43.08-4.63L43.08-4.63Q42.88-3.85 42.59-3.01L42.59-3.01L42.59-3.01Q42.30-2.18 42.05-1.58L42.05-1.58L42.05-1.58Q41.95-1.35 41.90-1.35L41.90-1.35L41.90-1.35Q41.85-1.35 41.81-1.45L41.81-1.45L41.81-1.45Q41.77-1.55 41.77-1.60L41.77-1.60L41.77-1.60Q41.67-2.85 42-4.08L42-4.08L42-4.08Q42.33-5.30 42.75-6.55L42.75-6.55L42.75-6.55Q43-7.33 43.20-7.93L43.20-7.93L43.20-7.93Q43.40-8.53 43.40-9.45L43.40-9.45L43.40-9.45Q43.40-9.85 43.60-10.29L43.60-10.29L43.60-10.29Q43.80-10.73 44.19-11.09L44.19-11.09L44.19-11.09Q44.58-11.45 45.15-11.68L45.15-11.68L45.15-11.68Q45.73-11.90 46.45-11.88L46.45-11.88L46.45-11.88Q47.65-11.85 48.30-11.31L48.30-11.31L48.30-11.31Q48.95-10.78 49.21-9.95L49.21-9.95L49.21-9.95Q49.48-9.13 49.44-8.16L49.44-8.16L49.44-8.16Q49.40-7.20 49.23-6.30L49.23-6.30L49.23-6.30Q49.08-5.63 48.88-5.08L48.88-5.08L48.88-5.08Q48.67-4.53 48.45-4.05L48.45-4.05L48.45-4.05Q48.23-3.58 48.02-3.15L48.02-3.15L48.02-3.15Q47.83-2.73 47.70-2.30L47.70-2.30L47.70-2.30Q47.67-2.23 47.65-2.14L47.65-2.14L47.65-2.14Q47.63-2.05 47.58-2.05L47.58-2.05L47.58-2.05Q47.52-2.05 47.50-2.15L47.50-2.15L47.50-2.15Q47.48-2.25 47.48-2.38L47.48-2.38L47.48-2.38Q47.42-3.23 47.65-4.01L47.65-4.01L47.65-4.01Q47.88-4.80 48.13-5.64L48.13-5.64L48.13-5.64Q48.38-6.48 48.50-7.40L48.50-7.40L48.50-7.40Q48.63-8.33 48.40-9.45L48.40-9.45L48.40-9.45Q48.17-10.65 47.30-11.05L47.30-11.05L47.30-11.05Q46.42-11.45 45.30-11L45.30-11L45.30-11Q45.15-10.93 44.90-10.78L44.90-10.78L44.90-10.78Q44.65-10.63 44.41-10.38L44.41-10.38L44.41-10.38Q44.17-10.13 43.98-9.79L43.98-9.79L43.98-9.79Q43.77-9.45 43.73-9.05L43.73-9.05L43.73-9.05Q44.02-9.50 44.42-9.90L44.42-9.90L44.42-9.90Q44.83-10.30 45.27-10.54L45.27-10.54L45.27-10.54Q45.73-10.78 46.19-10.83L46.19-10.83L46.19-10.83Q46.65-10.88 47.10-10.65L47.10-10.65L47.10-10.65Q47.63-10.38 47.83-9.89L47.83-9.89L47.83-9.89Q48.02-9.40 48.05-8.97ZM42.95-8.30L42.95-8.30L42.95-8.30Q42.67-7.35 42.21-6.43L42.21-6.43L42.21-6.43Q41.75-5.50 41.45-4.65L41.45-4.65L41.45-4.65Q41.42-4.60 41.36-4.46L41.36-4.46L41.36-4.46Q41.30-4.33 41.20-4.35L41.20-4.35L41.20-4.35Q41.15-4.38 41.14-4.51L41.14-4.51L41.14-4.51Q41.13-4.65 41.13-4.73L41.13-4.73L41.13-4.73Q41.13-5.13 41.26-5.79L41.26-5.79L41.26-5.79Q41.40-6.45 41.55-6.88L41.55-6.88L41.55-6.88Q41.60-7.03 41.74-7.64L41.74-7.64L41.74-7.64Q41.88-8.25 41.99-8.97L41.99-8.97L41.99-8.97Q42.10-9.70 42.14-10.38L42.14-10.38L42.14-10.38Q42.17-11.05 42-11.35L42-11.35L42-11.35Q41.90-11.53 42-11.53L42-11.53L42-11.53Q42.08-11.53 42.20-11.40L42.20-11.40L42.20-11.40Q42.50-11.13 42.69-10.73L42.69-10.73L42.69-10.73Q42.88-10.33 42.96-9.89L42.96-9.89L42.96-9.89Q43.05-9.45 43.04-9.03L43.04-9.03L43.04-9.03Q43.02-8.60 42.95-8.30ZM48.05-0.03L48.05-0.03L48.05-0.03Q48 0 47.85-0.05L47.85-0.05L47.85-0.05Q47.77-0.08 47.73-0.10L47.73-0.10L47.73-0.10Q47.38-0.33 47.13-0.61L47.13-0.61L47.13-0.61Q46.88-0.90 46.63-1.60L46.63-1.60L46.63-1.60Q46.55-1.85 46.51-2.24L46.51-2.24L46.51-2.24Q46.48-2.63 46.50-3L46.50-3L46.50-3Q46.52-3.38 46.59-3.64L46.59-3.64L46.59-3.64Q46.65-3.90 46.77-3.90L46.77-3.90L46.77-3.90Q46.83-3.90 46.89-3.61L46.89-3.61L46.89-3.61Q46.95-3.33 47.01-2.95L47.01-2.95L47.01-2.95Q47.08-2.58 47.15-2.20L47.15-2.20L47.15-2.20Q47.23-1.83 47.27-1.65L47.27-1.65L47.27-1.65Q47.40-1.28 47.52-0.90L47.52-0.90L47.52-0.90Q47.65-0.53 47.92-0.25L47.92-0.25L47.92-0.25Q47.98-0.20 48.02-0.11L48.02-0.11L48.02-0.11Q48.08-0.03 48.05-0.03ZM41.30 0.03L41.30 0.03L41.30 0.03Q40.52-0.50 40.11-1.13L40.11-1.13L40.11-1.13Q39.70-1.75 39.55-2.43L39.55-2.43L39.55-2.43Q39.40-3.10 39.44-3.80L39.44-3.80L39.44-3.80Q39.48-4.50 39.63-5.18L39.63-5.18L39.63-5.18Q39.83-6.08 40.14-6.96L40.14-6.96L40.14-6.96Q40.45-7.85 40.74-8.69L40.74-8.69L40.74-8.69Q41.02-9.53 41.19-10.33L41.19-10.33L41.19-10.33Q41.35-11.13 41.23-11.85L41.23-11.85L41.23-11.85Q41.23-11.95 41.25-11.95L41.25-11.95L41.25-11.95Q41.30-11.95 41.38-11.83L41.38-11.83L41.38-11.83Q41.83-11.03 41.80-10.18L41.80-10.18L41.80-10.18Q41.77-9.33 41.52-8.44L41.52-8.44L41.52-8.44Q41.27-7.55 40.91-6.64L40.91-6.64L40.91-6.64Q40.55-5.73 40.35-4.80L40.35-4.80L40.35-4.80Q40.23-4.23 40.19-3.59L40.19-3.59L40.19-3.59Q40.15-2.95 40.27-2.33L40.27-2.33L40.27-2.33Q40.40-1.70 40.69-1.10L40.69-1.10L40.69-1.10Q40.98-0.50 41.48-0.03L41.48-0.03L41.48-0.03Q41.58 0.03 41.52 0.08L41.52 0.08L41.52 0.08Q41.48 0.13 41.41 0.09L41.41 0.09L41.41 0.09Q41.35 0.05 41.30 0.03ZM42.25 0.13L42.25 0.13L42.25 0.13Q42.17 0.18 42.05 0.05L42.05 0.05L42.05 0.05Q41.77-0.15 41.51-0.38L41.51-0.38L41.51-0.38Q41.25-0.60 41-1.10L41-1.10L41-1.10Q40.90-1.28 40.85-1.55L40.85-1.55L40.85-1.55Q40.80-1.83 40.80-2.09L40.80-2.09L40.80-2.09Q40.80-2.35 40.84-2.53L40.84-2.53L40.84-2.53Q40.88-2.70 40.95-2.70L40.95-2.70L40.95-2.70Q41.05-2.68 41.11-2.43L41.11-2.43L41.11-2.43Q41.17-2.18 41.23-2.10L41.23-2.10L41.23-2.10Q41.33-1.83 41.40-1.59L41.40-1.59L41.40-1.59Q41.48-1.35 41.58-1.13L41.58-1.13L41.58-1.13Q41.73-0.78 41.88-0.53L41.88-0.53L41.88-0.53Q42.02-0.28 42.23-0.03L42.23-0.03L42.23-0.03Q42.25 0 42.27 0.05L42.27 0.05L42.27 0.05Q42.30 0.10 42.25 0.13ZM57.95-6.93L57.95-6.93L57.95-6.93Q58.02-7.60 57.97-8.35L57.97-8.35L57.97-8.35Q57.92-9.10 57.66-9.74L57.66-9.74L57.66-9.74Q57.40-10.38 56.86-10.80L56.86-10.80L56.86-10.80Q56.32-11.23 55.45-11.23L55.45-11.23L55.45-11.23Q54.27-11.23 53.40-10.59L53.40-10.59L53.40-10.59Q52.52-9.95 51.90-9.01L51.90-9.01L51.90-9.01Q51.27-8.08 50.92-7.01L50.92-7.01L50.92-7.01Q50.57-5.95 50.47-5.08L50.47-5.08L50.47-5.08Q50.32-3.88 50.44-3L50.44-3L50.44-3Q50.55-2.13 50.85-1.56L50.85-1.56L50.85-1.56Q51.15-1 51.61-0.73L51.61-0.73L51.61-0.73Q52.07-0.45 52.63-0.45L52.63-0.45L52.63-0.45Q53.40-0.43 54.26-0.89L54.26-0.89L54.26-0.89Q55.13-1.35 55.88-2.19L55.88-2.19L55.88-2.19Q56.63-3.03 57.19-4.24L57.19-4.24L57.19-4.24Q57.75-5.45 57.95-6.93ZM49.90-5.20L49.90-5.20L49.90-5.20Q50-6.20 50.40-7.40L50.40-7.40L50.40-7.40Q50.80-8.60 51.51-9.63L51.51-9.63L51.51-9.63Q52.22-10.65 53.22-11.34L53.22-11.34L53.22-11.34Q54.22-12.03 55.55-12.03L55.55-12.03L55.55-12.03Q56.55-12.03 57.20-11.55L57.20-11.55L57.20-11.55Q57.85-11.08 58.20-10.34L58.20-10.34L58.20-10.34Q58.55-9.60 58.65-8.74L58.65-8.74L58.65-8.74Q58.75-7.88 58.65-7.10L58.65-7.10L58.65-7.10Q58.42-5.30 57.77-3.98L57.77-3.98L57.77-3.98Q57.13-2.65 56.25-1.76L56.25-1.76L56.25-1.76Q55.38-0.88 54.40-0.44L54.40-0.44L54.40-0.44Q53.42 0 52.52 0L52.52 0L52.52 0Q51.85 0 51.31-0.30L51.31-0.30L51.31-0.30Q50.77-0.60 50.41-1.24L50.41-1.24L50.41-1.24Q50.05-1.88 49.91-2.86L49.91-2.86L49.91-2.86Q49.77-3.85 49.90-5.20ZM52.70-1.68L52.70-1.68L52.70-1.68Q52.57-1.68 52.45-1.76L52.45-1.76L52.45-1.76Q52.32-1.85 52.25-1.98L52.25-1.98L52.25-1.98Q52.17-2.10 52.15-2.23L52.15-2.23L52.15-2.23Q52.13-2.35 52.25-2.40L52.25-2.40L52.25-2.40Q52.32-2.43 52.45-2.23L52.45-2.23L52.45-2.23Q52.57-2.02 52.72-2.02L52.72-2.02L52.72-2.02Q52.97-2.02 53.31-2.35L53.31-2.35L53.31-2.35Q53.65-2.68 53.96-3.11L53.96-3.11L53.96-3.11Q54.27-3.55 54.51-3.98L54.51-3.98L54.51-3.98Q54.75-4.40 54.85-4.60L54.85-4.60L54.85-4.60Q54.95-4.80 55.05-5.11L55.05-5.11L55.05-5.11Q55.15-5.43 55.24-5.75L55.24-5.75L55.24-5.75Q55.32-6.08 55.39-6.39L55.39-6.39L55.39-6.39Q55.45-6.70 55.47-6.93L55.47-6.93L55.47-6.93Q55.60-8.05 55.42-8.66L55.42-8.66L55.42-8.66Q55.25-9.28 54.85-9.28L54.85-9.28L54.85-9.28Q54.55-9.28 54.22-9.09L54.22-9.09L54.22-9.09Q53.90-8.90 53.61-8.60L53.61-8.60L53.61-8.60Q53.32-8.30 53.10-7.94L53.10-7.94L53.10-7.94Q52.88-7.58 52.77-7.20L52.77-7.20L52.77-7.20Q52.65-6.78 52.60-6.78L52.60-6.78L52.60-6.78Q52.52-6.78 52.52-7.20L52.52-7.20L52.52-7.20Q52.60-7.68 52.85-8.14L52.85-8.14L52.85-8.14Q53.10-8.60 53.47-8.96L53.47-8.96L53.47-8.96Q53.85-9.33 54.30-9.56L54.30-9.56L54.30-9.56Q54.75-9.80 55.22-9.80L55.22-9.80L55.22-9.80Q55.70-9.80 55.94-9.46L55.94-9.46L55.94-9.46Q56.17-9.13 56.27-8.64L56.27-8.64L56.27-8.64Q56.38-8.15 56.36-7.64L56.36-7.64L56.36-7.64Q56.35-7.13 56.30-6.83L56.30-6.83L56.30-6.83Q56.20-6.15 55.99-5.51L55.99-5.51L55.99-5.51Q55.77-4.88 55.47-4.23L55.47-4.23L55.47-4.23Q55.32-3.93 55.02-3.49L55.02-3.49L55.02-3.49Q54.72-3.05 54.34-2.65L54.34-2.65L54.34-2.65Q53.95-2.25 53.51-1.96L53.51-1.96L53.51-1.96Q53.07-1.68 52.70-1.68ZM53.50-1.20L53.50-1.20L53.50-1.20Q53.52-1.05 53.26-0.95L53.26-0.95L53.26-0.95Q53-0.85 52.72-0.85L52.72-0.85L52.72-0.85Q51.95-0.88 51.54-1.35L51.54-1.35L51.54-1.35Q51.13-1.83 50.96-2.48L50.96-2.48L50.96-2.48Q50.80-3.13 50.81-3.83L50.81-3.83L50.81-3.83Q50.82-4.53 50.88-5L50.88-5L50.88-5Q50.97-5.83 51.27-6.85L51.27-6.85L51.27-6.85Q51.57-7.88 52.13-8.78L52.13-8.78L52.13-8.78Q52.67-9.68 53.47-10.29L53.47-10.29L53.47-10.29Q54.27-10.90 55.38-10.90L55.38-10.90L55.38-10.90Q56.10-10.90 56.54-10.53L56.54-10.53L56.54-10.53Q56.97-10.15 57.19-9.60L57.19-9.60L57.19-9.60Q57.40-9.05 57.44-8.41L57.44-8.41L57.44-8.41Q57.47-7.78 57.40-7.25L57.40-7.25L57.40-7.25Q57.35-6.68 57.22-6.20L57.22-6.20L57.22-6.20Q57.10-5.73 56.88-5.15L56.88-5.15L56.88-5.15Q56.80-4.98 56.67-4.75L56.67-4.75L56.67-4.75Q56.55-4.53 56.40-4.55L56.40-4.55L56.40-4.55Q56.32-4.58 56.36-4.75L56.36-4.75L56.36-4.75Q56.40-4.93 56.46-5.19L56.46-5.19L56.46-5.19Q56.52-5.45 56.60-5.74L56.60-5.74L56.60-5.74Q56.67-6.03 56.70-6.28L56.70-6.28L56.70-6.28Q56.75-6.70 56.76-7.34L56.76-7.34L56.76-7.34Q56.77-7.98 56.66-8.58L56.66-8.58L56.66-8.58Q56.55-9.18 56.25-9.60L56.25-9.60L56.25-9.60Q55.95-10.03 55.35-10.03L55.35-10.03L55.35-10.03Q54.47-10.03 53.74-9.46L53.74-9.46L53.74-9.46Q53-8.90 52.45-8.09L52.45-8.09L52.45-8.09Q51.90-7.28 51.56-6.39L51.56-6.39L51.56-6.39Q51.22-5.50 51.15-4.83L51.15-4.83L51.15-4.83Q51.10-4.42 51.13-3.83L51.13-3.83L51.13-3.83Q51.15-3.23 51.31-2.64L51.31-2.64L51.31-2.64Q51.47-2.05 51.85-1.63L51.85-1.63L51.85-1.63Q52.22-1.20 52.88-1.18L52.88-1.18L52.88-1.18Q53.07-1.15 53.26-1.21L53.26-1.21L53.26-1.21Q53.45-1.28 53.50-1.20ZM69.92-13.03L69.92-13.03L69.92-13.03Q69.57-11.45 69.01-9.89L69.01-9.89L69.01-9.89Q68.45-8.33 67.90-6.93L67.90-6.93L67.90-6.93Q67.88-6.80 67.77-6.60L67.77-6.60L67.77-6.60Q67.67-6.40 67.55-6.45L67.55-6.45L67.55-6.45Q67.52-6.45 67.52-6.68L67.52-6.68L67.52-6.68Q67.52-6.90 67.55-6.98L67.55-6.98L67.55-6.98Q67.60-7.33 67.69-7.81L67.69-7.81L67.69-7.81Q67.77-8.30 67.89-8.80L67.89-8.80L67.89-8.80Q68-9.30 68.13-9.79L68.13-9.79L68.13-9.79Q68.25-10.28 68.35-10.63L68.35-10.63L68.35-10.63Q68.42-10.78 68.54-11.30L68.54-11.30L68.54-11.30Q68.65-11.83 68.77-12.54L68.77-12.54L68.77-12.54Q68.90-13.25 69-14.08L69-14.08L69-14.08Q69.10-14.90 69.13-15.66L69.13-15.66L69.13-15.66Q69.15-16.43 69.11-17.05L69.11-17.05L69.11-17.05Q69.07-17.68 68.90-17.98L68.90-17.98L68.90-17.98Q68.77-18.23 68.85-18.25L68.85-18.25L68.85-18.25Q68.95-18.25 69.07-18.13L69.07-18.13L69.07-18.13Q69.45-17.75 69.66-17.11L69.66-17.11L69.66-17.11Q69.88-16.48 69.97-15.74L69.97-15.74L69.97-15.74Q70.07-15 70.05-14.28L70.05-14.28L70.05-14.28Q70.02-13.55 69.92-13.03ZM70.57-15.80L70.57-15.80L70.57-15.80Q70.82-15.30 70.88-14.58L70.88-14.58L70.88-14.58Q70.92-13.85 70.85-13.01L70.85-13.01L70.85-13.01Q70.77-12.18 70.61-11.29L70.61-11.29L70.61-11.29Q70.45-10.40 70.25-9.59L70.25-9.59L70.25-9.59Q70.05-8.78 69.86-8.08L69.86-8.08L69.86-8.08Q69.67-7.38 69.55-6.93L69.55-6.93L69.55-6.93Q69.20-5.63 68.91-4.34L68.91-4.34L68.91-4.34Q68.63-3.05 68.63-2.15L68.63-2.15L68.63-2.15Q68.63-1.83 68.60-1.83L68.60-1.83L68.60-1.83Q68.55-1.78 68.49-1.90L68.49-1.90L68.49-1.90Q68.42-2.02 68.38-2.15L68.38-2.15L68.38-2.15Q68.13-3.05 68.16-4.01L68.16-4.01L68.16-4.01Q68.20-4.98 68.40-5.99L68.40-5.99L68.40-5.99Q68.60-7 68.91-8.04L68.91-8.04L68.91-8.04Q69.22-9.08 69.52-10.10L69.52-10.10L69.52-10.10Q69.88-11.40 70.22-12.81L70.22-12.81L70.22-12.81Q70.57-14.23 70.45-15.80L70.45-15.80L70.45-15.80Q70.45-15.93 70.44-15.94L70.44-15.94L70.44-15.94Q70.42-15.95 70.45-15.95L70.45-15.95L70.45-15.95Q70.50-15.95 70.57-15.80ZM66.97-10.68L66.97-10.68L66.97-10.68Q65.47-10.03 64.41-8.86L64.41-8.86L64.41-8.86Q63.35-7.70 62.80-6.28L62.80-6.28L62.80-6.28Q62.57-5.68 62.44-5.14L62.44-5.14L62.44-5.14Q62.30-4.60 62.25-4L62.25-4L62.25-4Q62.22-3.70 62.40-3.78L62.40-3.78L62.40-3.78Q62.57-3.85 62.70-4L62.70-4L62.70-4Q63.00-4.38 63.25-4.74L63.25-4.74L63.25-4.74Q63.50-5.10 63.76-5.49L63.76-5.49L63.76-5.49Q64.02-5.88 64.31-6.31L64.31-6.31L64.31-6.31Q64.60-6.75 64.95-7.25L64.95-7.25L64.95-7.25Q65.32-7.78 65.66-8.29L65.66-8.29L65.66-8.29Q66-8.80 66.26-9.25L66.26-9.25L66.26-9.25Q66.52-9.70 66.71-10.08L66.71-10.08L66.71-10.08Q66.90-10.45 66.97-10.68ZM66.42-8.70L66.42-8.70L66.42-8.70Q65.52-6.95 64.57-5.41L64.57-5.41L64.57-5.41Q63.62-3.88 62.40-2.60L62.40-2.60L62.40-2.60Q61.62-1.78 61.47-2.85L61.47-2.85L61.47-2.85Q61.42-3.70 61.60-4.63L61.60-4.63L61.60-4.63Q61.77-5.55 62.12-6.38L62.12-6.38L62.12-6.38Q62.45-7.18 62.92-7.93L62.92-7.93L62.92-7.93Q63.40-8.68 64.02-9.30L64.02-9.30L64.02-9.30Q64.65-9.93 65.41-10.35L65.41-10.35L65.41-10.35Q66.17-10.78 67.05-10.93L67.05-10.93L67.05-10.93Q67.35-11.98 67.63-12.99L67.63-12.99L67.63-12.99Q67.90-14 68.07-14.98L68.07-14.98L68.07-14.98Q68.25-15.95 68.26-16.86L68.26-16.86L68.26-16.86Q68.27-17.78 68.10-18.60L68.10-18.60L68.10-18.60Q68.05-18.75 68.07-18.75L68.07-18.75L68.07-18.75Q68.13-18.78 68.16-18.70L68.16-18.70L68.16-18.70Q68.20-18.63 68.20-18.60L68.20-18.60L68.20-18.60Q68.80-17.40 68.79-16.03L68.79-16.03L68.79-16.03Q68.77-14.65 68.45-13.18L68.45-13.18L68.45-13.18Q68.13-11.70 67.64-10.18L67.64-10.18L67.64-10.18Q67.15-8.65 66.80-7.13L66.80-7.13L66.80-7.13Q66.57-6.15 66.54-5.04L66.54-5.04L66.54-5.04Q66.50-3.93 66.75-2.85L66.75-2.85L66.75-2.85Q67-1.73 67.67-0.94L67.67-0.94L67.67-0.94Q68.35-0.15 69.22-0.08L69.22-0.08L69.22-0.08Q69.42-0.05 69.42 0L69.42 0L69.42 0Q69.42 0.05 69.36 0.06L69.36 0.06L69.36 0.06Q69.30 0.08 69.25 0.08L69.25 0.08L69.25 0.08Q68.72 0.08 68.21-0.13L68.21-0.13L68.21-0.13Q67.70-0.33 67.25-0.70L67.25-0.70L67.25-0.70Q66.80-1.07 66.46-1.59L66.46-1.59L66.46-1.59Q66.13-2.10 65.97-2.75L65.97-2.75L65.97-2.75Q65.92-2.95 65.92-3.08L65.92-3.08L65.92-3.08Q65.22-1.75 64.24-0.94L64.24-0.94L64.24-0.94Q63.25-0.13 61.75 0L61.75 0L61.75 0Q60.62 0.08 60.04-0.53L60.04-0.53L60.04-0.53Q59.45-1.13 59.22-1.98L59.22-1.98L59.22-1.98Q59.00-2.83 59.07-3.76L59.07-3.76L59.07-3.76Q59.15-4.70 59.35-5.30L59.35-5.30L59.35-5.30Q59.92-7.03 60.80-8.34L60.80-8.34L60.80-8.34Q61.67-9.65 62.55-10.18L62.55-10.18L62.55-10.18Q62.60-10.23 62.70-10.26L62.70-10.26L62.70-10.26Q62.80-10.30 62.82-10.28L62.82-10.28L62.82-10.28Q62.87-10.25 62.80-10.18L62.80-10.18L62.80-10.18Q62.72-10.10 62.70-10.08L62.70-10.08L62.70-10.08Q61.35-8.72 60.61-6.99L60.61-6.99L60.61-6.99Q59.87-5.25 59.82-3.45L59.82-3.45L59.82-3.45Q59.80-3 59.85-2.48L59.85-2.48L59.85-2.48Q59.90-1.95 60.09-1.49L60.09-1.49L60.09-1.49Q60.27-1.03 60.62-0.71L60.62-0.71L60.62-0.71Q60.97-0.40 61.57-0.40L61.57-0.40L61.57-0.40Q62.42-0.38 63.19-0.91L63.19-0.91L63.19-0.91Q63.95-1.45 64.51-2.24L64.51-2.24L64.51-2.24Q65.07-3.03 65.42-3.93L65.42-3.93L65.42-3.93Q65.77-4.83 65.82-5.58L65.82-5.58L65.82-5.58Q65.65-5.38 65.52-5.16L65.52-5.16L65.52-5.16Q65.40-4.95 65.20-4.70L65.20-4.70L65.20-4.70Q65.17-4.65 65.05-4.54L65.05-4.54L65.05-4.54Q64.92-4.42 64.85-4.45L64.85-4.45L64.85-4.45Q64.80-4.48 64.90-4.74L64.90-4.74L64.90-4.74Q65-5 65.15-5.31L65.15-5.31L65.15-5.31Q65.30-5.63 65.45-5.91L65.45-5.91L65.45-5.91Q65.60-6.20 65.65-6.30L65.65-6.30L65.65-6.30Q65.92-6.88 66.07-7.45L66.07-7.45L66.07-7.45Q66.22-8.03 66.42-8.70ZM69.90-0.58L69.90-0.58L69.90-0.58Q69.90-0.53 69.77-0.48L69.77-0.48L69.77-0.48Q69.70-0.45 69.65-0.45L69.65-0.45L69.65-0.45Q69.17-0.40 68.76-0.50L68.76-0.50L68.76-0.50Q68.35-0.60 67.92-1.03L67.92-1.03L67.92-1.03Q67.70-1.25 67.54-1.70L67.54-1.70L67.54-1.70Q67.38-2.15 67.29-2.58L67.29-2.58L67.29-2.58Q67.20-3 67.21-3.33L67.21-3.33L67.21-3.33Q67.22-3.65 67.32-3.63L67.32-3.63L67.32-3.63Q67.35-3.65 67.41-3.53L67.41-3.53L67.41-3.53Q67.47-3.40 67.52-3.24L67.52-3.24L67.52-3.24Q67.57-3.08 67.63-2.91L67.63-2.91L67.63-2.91Q67.67-2.75 67.70-2.68L67.70-2.68L67.70-2.68Q67.82-2.27 68-1.95L68-1.95L68-1.95Q68.17-1.63 68.42-1.38L68.42-1.38L68.42-1.38Q69.02-0.68 69.72-0.65L69.72-0.65L69.72-0.65Q69.77-0.65 69.84-0.64L69.84-0.64L69.84-0.64Q69.90-0.63 69.90-0.58ZM66.27-11.13L66.27-11.13L66.27-11.13Q66.27-11.10 66.24-11.08L66.24-11.08L66.24-11.08Q66.20-11.05 66.05-11L66.05-11L66.05-11Q65.72-10.88 65.25-10.59L65.25-10.59L65.25-10.59Q64.77-10.30 64.25-9.88L64.25-9.88L64.25-9.88Q63.72-9.45 63.21-8.89L63.21-8.89L63.21-8.89Q62.70-8.33 62.32-7.68L62.32-7.68L62.32-7.68Q61.95-7 61.69-6.36L61.69-6.36L61.69-6.36Q61.42-5.73 61.27-5.19L61.27-5.19L61.27-5.19Q61.12-4.65 61.06-4.28L61.06-4.28L61.06-4.28Q61.00-3.90 60.97-3.78L60.97-3.78L60.97-3.78Q60.95-3.35 60.95-2.94L60.95-2.94L60.95-2.94Q60.95-2.53 61.06-2.19L61.06-2.19L61.06-2.19Q61.17-1.85 61.42-1.68L61.42-1.68L61.42-1.68Q61.67-1.50 62.17-1.58L62.17-1.58L62.17-1.58Q62.22-1.58 62.49-1.69L62.49-1.69L62.49-1.69Q62.75-1.80 62.80-1.78L62.80-1.78L62.80-1.78Q62.82-1.75 62.77-1.68L62.77-1.68L62.77-1.68Q62.72-1.60 62.62-1.51L62.62-1.51L62.62-1.51Q62.52-1.43 62.44-1.36L62.44-1.36L62.44-1.36Q62.35-1.30 62.32-1.28L62.32-1.28L62.32-1.28Q62.10-1.15 61.82-1.09L61.82-1.09L61.82-1.09Q61.55-1.03 61.29-1.07L61.29-1.07L61.29-1.07Q61.02-1.13 60.80-1.29L60.80-1.29L60.80-1.29Q60.57-1.45 60.47-1.75L60.47-1.75L60.47-1.75Q60.20-2.68 60.22-3.55L60.22-3.55L60.22-3.55Q60.27-4.42 60.45-5.29L60.45-5.29L60.45-5.29Q60.62-6.15 61.05-7.03L61.05-7.03L61.05-7.03Q61.30-7.70 61.84-8.43L61.84-8.43L61.84-8.43Q62.37-9.15 63.07-9.75L63.07-9.75L63.07-9.75Q63.77-10.35 64.54-10.75L64.54-10.75L64.54-10.75Q65.30-11.15 65.97-11.18L65.97-11.18L65.97-11.18Q66.07-11.18 66.17-11.18L66.17-11.18L66.17-11.18Q66.27-11.18 66.27-11.13ZM80.63-8.80L80.63-8.80L80.63-8.80Q80.42-7.80 79.95-6.80L79.95-6.80L79.95-6.80Q79.47-5.80 79.05-4.93L79.05-4.93L79.05-4.93Q79.02-4.88 78.94-4.75L78.94-4.75L78.94-4.75Q78.85-4.63 78.80-4.63L78.80-4.63L78.80-4.63Q78.72-4.65 78.72-4.79L78.72-4.79L78.72-4.79Q78.72-4.93 78.72-4.98L78.72-4.98L78.72-4.98Q78.75-5.20 78.81-5.51L78.81-5.51L78.81-5.51Q78.88-5.83 78.92-6.16L78.92-6.16L78.92-6.16Q78.97-6.50 79.04-6.81L79.04-6.81L79.04-6.81Q79.10-7.13 79.17-7.38L79.17-7.38L79.17-7.38Q79.40-8.22 79.55-8.84L79.55-8.84L79.55-8.84Q79.70-9.45 79.77-9.95L79.77-9.95L79.77-9.95Q79.85-10.45 79.86-10.90L79.86-10.90L79.86-10.90Q79.88-11.35 79.80-11.88L79.80-11.88L79.80-11.88Q79.77-12.08 79.83-12.13L79.83-12.13L79.83-12.13Q79.88-12.15 79.95-12.08L79.95-12.08L79.95-12.08Q80.02-12 80.08-11.93L80.08-11.93L80.08-11.93Q80.50-11.25 80.65-10.44L80.65-10.44L80.65-10.44Q80.80-9.63 80.63-8.80ZM81.13-10.63L81.22-10.48L81.22-10.48Q81.55-10 81.55-9.22L81.55-9.22L81.55-9.22Q81.55-8.45 81.40-7.64L81.40-7.64L81.40-7.64Q81.25-6.83 81.03-6.08L81.03-6.08L81.03-6.08Q80.80-5.33 80.70-4.88L80.70-4.88L80.70-4.88Q80.50-4 80.15-3.13L80.15-3.13L80.15-3.13Q79.80-2.25 79.55-1.58L79.55-1.58L79.55-1.58Q79.52-1.50 79.47-1.41L79.47-1.41L79.47-1.41Q79.42-1.33 79.38-1.33L79.38-1.33L79.38-1.33Q79.33-1.33 79.33-1.43L79.33-1.43L79.33-1.43Q79.33-1.53 79.33-1.60L79.33-1.60L79.33-1.60Q79.25-2.98 79.63-4.29L79.63-4.29L79.63-4.29Q80-5.60 80.42-6.95L80.42-6.95L80.42-6.95Q80.67-7.78 80.90-8.64L80.90-8.64L80.90-8.64Q81.13-9.50 81.10-10.53L81.10-10.53L81.10-10.53Q81.10-10.63 81.13-10.63L81.13-10.63ZM78.88-10.90L78.88-10.90L78.88-10.90Q77.35-10.28 76.29-9.11L76.29-9.11L76.29-9.11Q75.22-7.95 74.65-6.50L74.65-6.50L74.65-6.50Q74.40-5.85 74.27-5.34L74.27-5.34L74.27-5.34Q74.15-4.83 74.08-4.23L74.08-4.23L74.08-4.23Q74.05-4.10 74.15-3.98L74.15-3.98L74.15-3.98Q74.25-3.85 74.35-3.98L74.35-3.98L74.35-3.98Q74.80-4.53 75.50-5.38L75.50-5.38L75.50-5.38Q76.20-6.23 76.90-7.18L76.90-7.18L76.90-7.18Q77.60-8.13 78.16-9.10L78.16-9.10L78.16-9.10Q78.72-10.08 78.88-10.90ZM77.20-2.43L77.20-2.43L77.20-2.43Q76.83-1.90 76.47-1.45L76.47-1.45L76.47-1.45Q76.13-1 75.70-0.66L75.70-0.66L75.70-0.66Q75.27-0.33 74.75-0.13L74.75-0.13L74.75-0.13Q74.22 0.08 73.55 0.10L73.55 0.10L73.55 0.10Q72.42 0.15 71.84-0.48L71.84-0.48L71.84-0.48Q71.25-1.10 71.02-2L71.02-2L71.02-2Q70.80-2.90 70.86-3.86L70.86-3.86L70.86-3.86Q70.92-4.83 71.13-5.45L71.13-5.45L71.13-5.45Q71.40-6.33 71.79-7.11L71.79-7.11L71.79-7.11Q72.17-7.90 72.61-8.54L72.61-8.54L72.61-8.54Q73.05-9.18 73.51-9.64L73.51-9.64L73.51-9.64Q73.97-10.10 74.42-10.35L74.42-10.35L74.42-10.35Q74.45-10.35 74.54-10.40L74.54-10.40L74.54-10.40Q74.63-10.45 74.63-10.38L74.63-10.38L74.63-10.38Q74.65-10.38 74.60-10.30L74.60-10.30L74.60-10.30Q74.55-10.23 74.50-10.18L74.50-10.18L74.50-10.18Q73.20-8.83 72.44-7.13L72.44-7.13L72.44-7.13Q71.67-5.43 71.58-3.63L71.58-3.63L71.58-3.63Q71.55-3.18 71.61-2.65L71.61-2.65L71.61-2.65Q71.67-2.13 71.86-1.66L71.86-1.66L71.86-1.66Q72.05-1.20 72.40-0.89L72.40-0.89L72.40-0.89Q72.75-0.58 73.35-0.58L73.35-0.58L73.35-0.58Q73.83-0.58 74.22-0.74L74.22-0.74L74.22-0.74Q74.63-0.90 74.97-1.16L74.97-1.16L74.97-1.16Q75.33-1.43 75.61-1.74L75.61-1.74L75.61-1.74Q75.90-2.05 76.13-2.33L76.13-2.33L76.13-2.33Q76.63-2.95 77.05-3.63L77.05-3.63L77.05-3.63Q77.05-4.13 77.11-4.60L77.11-4.60L77.11-4.60Q77.17-5.08 77.30-5.55L77.30-5.55L77.30-5.55Q77.38-5.90 77.44-6.11L77.44-6.11L77.44-6.11Q77.50-6.33 77.56-6.51L77.56-6.51L77.56-6.51Q77.63-6.70 77.69-6.91L77.69-6.91L77.69-6.91Q77.75-7.13 77.88-7.48L77.88-7.48L77.88-7.48Q77.47-6.78 77.09-6.16L77.09-6.16L77.09-6.16Q76.70-5.55 76.26-4.99L76.26-4.99L76.26-4.99Q75.83-4.42 75.36-3.89L75.36-3.89L75.36-3.89Q74.90-3.35 74.35-2.80L74.35-2.80L74.35-2.80Q73.92-2.38 73.65-2.53L73.65-2.53L73.65-2.53Q73.38-2.68 73.33-3.23L73.33-3.23L73.33-3.23Q73.27-4.08 73.41-4.88L73.41-4.88L73.41-4.88Q73.55-5.68 73.90-6.55L73.90-6.55L73.90-6.55Q74.22-7.35 74.71-8.10L74.71-8.10L74.71-8.10Q75.20-8.85 75.84-9.46L75.84-9.46L75.84-9.46Q76.47-10.08 77.25-10.51L77.25-10.51L77.25-10.51Q78.02-10.95 78.90-11.10L78.90-11.10L78.90-11.10Q78.95-11.38 78.99-11.58L78.99-11.58L78.99-11.58Q79.02-11.78 79.05-11.98L79.05-11.98L79.05-11.98Q79.10-12.25 79.10-12.25L79.10-12.25L79.10-12.25Q79.15-12.28 79.21-12.20L79.21-12.20L79.21-12.20Q79.27-12.13 79.33-12L79.33-12L79.33-12Q79.63-11.18 79.52-10.35L79.52-10.35L79.52-10.35Q79.42-9.53 79.16-8.68L79.16-8.68L79.16-8.68Q78.90-7.83 78.55-6.94L78.55-6.94L78.55-6.94Q78.20-6.05 77.97-5.15L77.97-5.15L77.97-5.15Q77.67-3.88 77.81-2.51L77.81-2.51L77.81-2.51Q77.95-1.15 78.88-0.05L78.88-0.05L78.88-0.05Q78.95 0.05 78.95 0.05L78.95 0.05L78.95 0.05Q78.92 0.08 78.80 0L78.80 0L78.80 0Q78.08-0.45 77.71-1.09L77.71-1.09L77.71-1.09Q77.35-1.73 77.20-2.43ZM78.08-11.28L78.08-11.28L78.08-11.28Q78.13-11.23 78.06-11.20L78.06-11.20L78.06-11.20Q78-11.18 77.80-11.13L77.80-11.13L77.80-11.13Q77.47-11.03 77.01-10.75L77.01-10.75L77.01-10.75Q76.55-10.48 76.04-10.05L76.04-10.05L76.04-10.05Q75.52-9.63 75.02-9.06L75.02-9.06L75.02-9.06Q74.52-8.50 74.15-7.85L74.15-7.85L74.15-7.85Q73.77-7.18 73.51-6.53L73.51-6.53L73.51-6.53Q73.25-5.88 73.09-5.34L73.09-5.34L73.09-5.34Q72.92-4.80 72.85-4.41L72.85-4.41L72.85-4.41Q72.77-4.03 72.77-3.88L72.77-3.88L72.77-3.88Q72.77-3.50 72.77-3.09L72.77-3.09L72.77-3.09Q72.77-2.68 72.88-2.35L72.88-2.35L72.88-2.35Q72.97-2.02 73.22-1.85L73.22-1.85L73.22-1.85Q73.47-1.68 73.97-1.75L73.97-1.75L73.97-1.75Q74-1.75 74.10-1.79L74.10-1.79L74.10-1.79Q74.20-1.83 74.30-1.86L74.30-1.86L74.30-1.86Q74.40-1.90 74.49-1.93L74.49-1.93L74.49-1.93Q74.58-1.95 74.60-1.95L74.60-1.95L74.60-1.95Q74.63-1.90 74.56-1.83L74.56-1.83L74.56-1.83Q74.50-1.75 74.40-1.66L74.40-1.66L74.40-1.66Q74.30-1.58 74.21-1.50L74.21-1.50L74.21-1.50Q74.13-1.43 74.10-1.40L74.10-1.40L74.10-1.40Q73.47-1.03 73.05-1.18L73.05-1.18L73.05-1.18Q72.63-1.33 72.39-1.74L72.39-1.74L72.39-1.74Q72.15-2.15 72.06-2.71L72.06-2.71L72.06-2.71Q71.97-3.28 72-3.73L72-3.73L72-3.73Q72.05-4.60 72.27-5.46L72.27-5.46L72.27-5.46Q72.50-6.33 72.85-7.20L72.85-7.20L72.85-7.20Q73.13-7.88 73.67-8.59L73.67-8.59L73.67-8.59Q74.22-9.30 74.91-9.90L74.91-9.90L74.91-9.90Q75.60-10.50 76.35-10.89L76.35-10.89L76.35-10.89Q77.10-11.28 77.80-11.30L77.80-11.30L77.80-11.30Q78.05-11.30 78.08-11.28ZM79.55-0.05L79.55-0.05L79.55-0.05Q79.60 0.03 79.58 0.05L79.58 0.05L79.58 0.05Q79.50 0.05 79.38 0L79.38 0L79.38 0Q79.30-0.05 78.97-0.30L78.97-0.30L78.97-0.30Q78.65-0.55 78.50-1.10L78.50-1.10L78.50-1.10Q78.45-1.30 78.41-1.61L78.41-1.61L78.41-1.61Q78.38-1.93 78.38-2.20L78.38-2.20L78.38-2.20Q78.38-2.48 78.41-2.68L78.41-2.68L78.41-2.68Q78.45-2.88 78.52-2.88L78.52-2.88L78.52-2.88Q78.60-2.88 78.69-2.58L78.69-2.58L78.69-2.58Q78.77-2.27 78.80-2.20L78.80-2.20L78.80-2.20Q78.88-1.85 78.94-1.59L78.94-1.59L78.94-1.59Q79-1.33 79.08-1.10L79.08-1.10L79.08-1.10Q79.17-0.83 79.34-0.48L79.34-0.48L79.34-0.48Q79.50-0.13 79.55-0.05ZM85.13-8.33L85.13-8.33L85.13-8.33Q84.92-7.48 84.56-6.54L84.56-6.54L84.56-6.54Q84.20-5.60 83.75-4.80L83.75-4.80L83.75-4.80Q83.75-4.75 83.69-4.64L83.69-4.64L83.69-4.64Q83.63-4.53 83.53-4.53L83.53-4.53L83.53-4.53Q83.47-4.53 83.46-4.67L83.46-4.67L83.46-4.67Q83.45-4.83 83.47-4.88L83.47-4.88L83.47-4.88Q83.47-5.28 83.58-5.94L83.58-5.94L83.58-5.94Q83.67-6.60 83.83-7.03L83.83-7.03L83.83-7.03Q83.88-7.18 83.99-7.75L83.99-7.75L83.99-7.75Q84.10-8.33 84.19-9.04L84.19-9.04L84.19-9.04Q84.28-9.75 84.29-10.41L84.29-10.41L84.29-10.41Q84.30-11.08 84.13-11.40L84.13-11.40L84.13-11.50L84.13-11.50Q84.22-11.58 84.35-11.45L84.35-11.45L84.35-11.45Q84.67-11.18 84.86-10.78L84.86-10.78L84.86-10.78Q85.05-10.38 85.14-9.94L85.14-9.94L85.14-9.94Q85.22-9.50 85.21-9.08L85.21-9.08L85.21-9.08Q85.20-8.65 85.13-8.33ZM86.10-8.43L86.10-8.43L86.10-8.43Q86.38-8.78 86.63-8.93L86.63-8.93L86.63-8.93Q86.88-9.08 87.13-9.18L87.13-9.18L87.13-9.18Q87.15-9.18 87.25-9.20L87.25-9.20L87.25-9.20Q87.35-9.22 87.40-9.15L87.40-9.15L87.40-9.15Q87.45-9.08 87.38-8.97L87.38-8.97L87.38-8.97Q87.30-8.88 87.25-8.83L87.25-8.83L87.25-8.83Q87.08-8.65 86.86-8.44L86.86-8.44L86.86-8.44Q86.65-8.22 86.47-8.03L86.47-8.03L86.47-8.03Q86.22-7.75 86.08-7.39L86.08-7.39L86.08-7.39Q85.92-7.03 85.85-6.65L85.85-6.65L85.85-6.65Q86.28-7.10 86.66-7.50L86.66-7.50L86.66-7.50Q87.05-7.90 87.50-8.25L87.50-8.25L87.50-8.25Q88.08-8.68 88.50-9.35L88.50-9.35L88.50-9.35Q88.92-10.03 89.10-11.33L89.10-11.33L89.10-11.33Q89.15-11.45 89.22-11.48L89.22-11.48L89.22-11.48Q89.30-11.50 89.30-11.30L89.30-11.30L89.30-11.30Q89.38-9.85 89-9L89-9L89-9Q88.63-8.15 87.88-7.58L87.88-7.58L87.88-7.58Q87.47-7.28 87.08-6.93L87.08-6.93L87.08-6.93Q86.67-6.58 86.31-6.15L86.31-6.15L86.31-6.15Q85.95-5.73 85.65-5.15L85.65-5.15L85.65-5.15Q85.35-4.58 85.13-3.83L85.13-3.83L85.13-3.83Q84.95-3.25 84.78-2.74L84.78-2.74L84.78-2.74Q84.60-2.23 84.40-1.75L84.40-1.75L84.40-1.75Q84.35-1.58 84.25-1.58L84.25-1.58L84.25-1.58Q84.17-1.60 84.17-1.83L84.17-1.83L84.17-1.83Q84.05-3.03 84.34-4.21L84.34-4.21L84.34-4.21Q84.63-5.40 85.03-6.68L85.03-6.68L85.03-6.68Q85.20-7.30 85.44-7.93L85.44-7.93L85.44-7.93Q85.67-8.55 85.65-9.35L85.65-9.35L85.65-9.35Q85.65-9.63 85.88-9.93L85.88-9.93L85.88-9.93Q86.10-10.23 86.42-10.49L86.42-10.49L86.42-10.49Q86.75-10.75 87.10-10.94L87.10-10.94L87.10-10.94Q87.45-11.13 87.70-11.20L87.70-11.20L87.70-11.20Q87.92-11.28 87.92-11.18L87.92-11.18L87.92-11.18Q87.92-11.08 87.78-10.93L87.78-10.93L87.78-10.93Q87.25-10.45 86.71-9.80L86.71-9.80L86.71-9.80Q86.17-9.15 86.10-8.43ZM83.92-0.03L83.92-0.03L83.92-0.03Q83.90 0 83.89-0.01L83.89-0.01L83.89-0.01Q83.88-0.03 83.75-0.10L83.75-0.10L83.75-0.10Q83-0.65 82.58-1.30L82.58-1.30L82.58-1.30Q82.15-1.95 81.96-2.64L81.96-2.64L81.96-2.64Q81.78-3.33 81.80-4.01L81.80-4.01L81.80-4.01Q81.83-4.70 81.97-5.35L81.97-5.35L81.97-5.35Q82.17-6.23 82.46-7.09L82.46-7.09L82.46-7.09Q82.75-7.95 83-8.76L83-8.76L83-8.76Q83.25-9.58 83.38-10.36L83.38-10.36L83.38-10.36Q83.50-11.15 83.38-11.88L83.38-11.88L83.38-11.88Q83.38-11.93 83.45-11.95L83.45-11.95L83.45-11.95Q83.47-11.95 83.50-11.91L83.50-11.91L83.50-11.91Q83.53-11.88 83.55-11.85L83.55-11.85L83.55-11.85Q84.03-11.05 84.03-10.21L84.03-10.21L84.03-10.21Q84.03-9.38 83.80-8.51L83.80-8.51L83.80-8.51Q83.58-7.65 83.24-6.76L83.24-6.76L83.24-6.76Q82.90-5.88 82.70-4.98L82.70-4.98L82.70-4.98Q82.45-3.83 82.66-2.53L82.66-2.53L82.66-2.53Q82.88-1.23 83.83-0.20L83.83-0.20L83.83-0.20Q83.88-0.13 83.92-0.10L83.92-0.10L83.92-0.10Q83.97-0.08 83.92-0.03ZM84.67 0L84.67 0L84.67 0Q84.63 0 84.58-0.03L84.58-0.03L84.47-0.08L84.47-0.08Q84.13-0.30 83.85-0.56L83.85-0.56L83.85-0.56Q83.58-0.83 83.38-1.33L83.38-1.33L83.38-1.33Q83.30-1.50 83.25-1.79L83.25-1.79L83.25-1.79Q83.20-2.08 83.19-2.33L83.19-2.33L83.19-2.33Q83.17-2.58 83.21-2.75L83.21-2.75L83.21-2.75Q83.25-2.93 83.35-2.90L83.35-2.90L83.35-2.90Q83.42-2.90 83.51-2.70L83.51-2.70L83.51-2.70Q83.60-2.50 83.65-2.30L83.65-2.30L83.65-2.30Q83.70-2.02 83.76-1.78L83.76-1.78L83.76-1.78Q83.83-1.53 83.92-1.33L83.92-1.33L83.92-1.33Q84.20-0.70 84.65-0.13L84.65-0.13L84.65-0.13Q84.70 0 84.67 0ZM88.75-11.23L88.75-11.23L88.75-11.23Q88.75-10.70 88.45-10.30L88.45-10.30L88.45-10.30Q88.15-9.90 87.72-9.63L87.72-9.63L87.72-9.63Q87.65-9.58 87.63-9.64L87.63-9.64L87.63-9.64Q87.60-9.70 87.60-9.73L87.60-9.73L87.60-9.73Q87.60-9.88 87.72-10.09L87.72-10.09L87.72-10.09Q87.85-10.30 88.01-10.54L88.01-10.54L88.01-10.54Q88.17-10.78 88.33-11.03L88.33-11.03L88.33-11.03Q88.47-11.28 88.53-11.48L88.53-11.48L88.53-11.48Q88.60-11.60 88.67-11.48L88.67-11.48L88.67-11.48Q88.75-11.35 88.75-11.23ZM95.65-6.05L95.65-6.05L95.65-6.05Q94.90-6.10 94.06-6.29L94.06-6.29L94.06-6.29Q93.22-6.48 92.50-6.75L92.50-6.75L92.50-6.75Q92.45-6.78 92.34-6.83L92.34-6.83L92.34-6.83Q92.22-6.88 92.22-6.95L92.22-6.95L92.22-6.95Q92.22-7.03 92.34-7.06L92.34-7.06L92.34-7.06Q92.45-7.10 92.50-7.10L92.50-7.10L92.50-7.10Q92.85-7.18 93.41-7.16L93.41-7.16L93.41-7.16Q93.97-7.15 94.32-7.10L94.32-7.10L94.32-7.10Q94.63-7.05 95.15-7.05L95.15-7.05L95.15-7.05Q95.67-7.05 96.22-7.10L96.22-7.10L96.22-7.10Q96.77-7.15 97.27-7.28L97.27-7.28L97.27-7.28Q97.77-7.40 98-7.60L98-7.60L98-7.60Q98.10-7.70 98.13-7.68L98.13-7.68L98.13-7.68Q98.15-7.65 98.14-7.60L98.14-7.60L98.14-7.60Q98.13-7.55 98.10-7.48L98.10-7.48L98.10-7.48Q98.07-7.40 98.07-7.40L98.07-7.40L98.07-7.40Q97.90-7.05 97.60-6.79L97.60-6.79L97.60-6.79Q97.30-6.53 96.96-6.36L96.96-6.36L96.96-6.36Q96.63-6.20 96.27-6.11L96.27-6.11L96.27-6.11Q95.92-6.03 95.65-6.05ZM92.72-5.18L92.72-5.18L92.72-5.18Q92.05-5.23 91.34-5.35L91.34-5.35L91.34-5.35Q90.63-5.48 90.05-5.58L90.05-5.58L90.05-5.58Q89.88-5.58 89.88-5.68L89.88-5.68L89.88-5.68Q89.88-5.73 89.96-5.76L89.96-5.76L89.96-5.76Q90.05-5.80 90.13-5.83L90.13-5.83L90.13-5.83Q91.10-6.10 92.14-6.04L92.14-6.04L92.14-6.04Q93.17-5.98 94.22-5.85L94.22-5.85L94.22-5.85Q94.90-5.78 95.59-5.71L95.59-5.71L95.59-5.71Q96.27-5.65 97-5.93L97-5.93L97-5.93Q97.07-5.95 97.09-5.90L97.09-5.90L97.09-5.90Q97.10-5.85 97.05-5.80L97.05-5.80L97.05-5.80Q96.75-5.38 96.17-5.23L96.17-5.23L96.17-5.23Q95.60-5.08 94.95-5.05L94.95-5.05L94.95-5.05Q94.30-5.03 93.69-5.09L93.69-5.09L93.69-5.09Q93.07-5.15 92.72-5.18ZM88.67-5.85L88.67-5.85L88.67-5.85Q88.65-5.80 88.61-5.83L88.61-5.83L88.61-5.83Q88.57-5.85 88.63-5.93L88.63-5.93L88.63-5.93Q88.95-6.75 89.41-7.29L89.41-7.29L89.41-7.29Q89.88-7.83 90.40-8.13L90.40-8.13L90.40-8.13Q90.92-8.43 91.50-8.53L91.50-8.53L91.50-8.53Q92.07-8.63 92.65-8.60L92.65-8.60L92.65-8.60Q93.42-8.58 94.19-8.45L94.19-8.45L94.19-8.45Q94.95-8.33 95.66-8.24L95.66-8.24L95.66-8.24Q96.38-8.15 97.04-8.16L97.04-8.16L97.04-8.16Q97.70-8.18 98.27-8.45L98.27-8.45L98.27-8.45Q98.30-8.45 98.35-8.41L98.35-8.41L98.35-8.41Q98.40-8.38 98.27-8.25L98.27-8.25L98.27-8.25Q97.70-7.68 97.01-7.54L97.01-7.54L97.01-7.54Q96.32-7.40 95.56-7.46L95.56-7.46L95.56-7.46Q94.80-7.53 94.01-7.68L94.01-7.68L94.01-7.68Q93.22-7.83 92.45-7.85L92.45-7.85L92.45-7.85Q91.50-7.90 90.46-7.45L90.46-7.45L90.46-7.45Q89.42-7 88.67-5.85ZM89.65-5.95L89.65-5.95L89.65-5.95Q89.45-5.78 89.22-5.58L89.22-5.58L89.22-5.58Q89-5.38 88.80-5.10L88.80-5.10L88.80-5.10Q88.67-5.03 88.67-5.08L88.67-5.08L88.67-5.08Q88.67-5.23 88.70-5.25L88.70-5.25L88.70-5.25Q88.70-5.28 88.72-5.30L88.72-5.30L88.72-5.30Q88.82-5.70 89-5.95L89-5.95L89-5.95Q89.17-6.20 89.55-6.50L89.55-6.50L89.55-6.50Q89.70-6.60 89.91-6.71L89.91-6.71L89.91-6.71Q90.13-6.83 90.32-6.89L90.32-6.89L90.32-6.89Q90.52-6.95 90.67-6.95L90.67-6.95L90.67-6.95Q90.82-6.95 90.85-6.85L90.85-6.85L90.85-6.85Q90.88-6.75 90.67-6.64L90.67-6.64L90.67-6.64Q90.47-6.53 90.40-6.48L90.40-6.48L90.40-6.48Q89.97-6.20 89.65-5.95ZM106.03-1.05L106.03-1.05L106.03-1.05Q106.92-1.20 107.76-1.60L107.76-1.60L107.76-1.60Q108.60-2 109.28-2.63L109.28-2.63L109.28-2.63Q109.33-2.65 109.47-2.80L109.47-2.80L109.47-2.80Q109.63-2.95 109.67-2.90L109.67-2.90L109.67-2.90Q109.72-2.85 109.65-2.75L109.65-2.75L109.65-2.75Q109.58-2.65 109.53-2.58L109.53-2.58L109.53-2.58Q109.03-1.85 108.21-1.39L108.21-1.39L108.21-1.39Q107.40-0.93 106.53-0.65L106.53-0.65L106.53-0.65Q105.80-0.45 104.97-0.51L104.97-0.51L104.97-0.51Q104.15-0.58 103.42-0.93L103.42-0.93L103.42-0.93Q103.20-1.03 103.15-1.09L103.15-1.09L103.15-1.09Q103.10-1.15 103.15-1.18L103.15-1.18L103.15-1.18Q103.20-1.20 103.31-1.20L103.31-1.20L103.31-1.20Q103.42-1.20 103.53-1.18L103.53-1.18L103.53-1.18Q103.80-1.13 104.16-1.09L104.16-1.09L104.16-1.09Q104.53-1.05 104.89-1.04L104.89-1.04L104.89-1.04Q105.25-1.03 105.55-1.03L105.55-1.03L105.55-1.03Q105.85-1.03 106.03-1.05ZM102.67-8.40L102.67-8.40L102.67-8.40Q102.55-7.53 102.55-6.69L102.55-6.69L102.55-6.69Q102.55-5.85 102.66-5.11L102.66-5.11L102.66-5.11Q102.78-4.38 103.01-3.80L103.01-3.80L103.01-3.80Q103.25-3.23 103.60-2.85L103.60-2.85L103.60-2.85Q104-2.45 104.59-2.24L104.59-2.24L104.59-2.24Q105.17-2.02 105.86-2.02L105.86-2.02L105.86-2.02Q106.55-2.02 107.31-2.23L107.31-2.23L107.31-2.23Q108.08-2.43 108.83-2.85L108.83-2.85L108.83-2.85Q108.97-2.95 109.03-2.90L109.03-2.90L109.03-2.90Q109.08-2.85 108.99-2.79L108.99-2.79L108.99-2.79Q108.90-2.73 108.83-2.68L108.83-2.68L108.83-2.68Q108.17-2.18 107.45-1.88L107.45-1.88L107.45-1.88Q106.72-1.58 105.99-1.50L105.99-1.50L105.99-1.50Q105.25-1.43 104.56-1.59L104.56-1.59L104.56-1.59Q103.88-1.75 103.33-2.20L103.33-2.20L103.33-2.20Q102.80-2.65 102.47-3.29L102.47-3.29L102.47-3.29Q102.15-3.93 101.99-4.69L101.99-4.69L101.99-4.69Q101.83-5.45 101.80-6.28L101.80-6.28L101.80-6.28Q101.78-7.10 101.85-7.90L101.85-7.90L101.85-7.90Q101.95-9.18 102.35-10.48L102.35-10.48L102.35-10.48Q102.75-11.78 103.41-12.88L103.41-12.88L103.41-12.88Q104.08-13.98 105-14.80L105-14.80L105-14.80Q105.92-15.63 107.08-15.95L107.08-15.95L107.08-15.95Q107.65-16.10 108.25-16.07L108.25-16.07L108.25-16.07Q108.85-16.05 109.36-15.85L109.36-15.85L109.36-15.85Q109.88-15.65 110.25-15.26L110.25-15.26L110.25-15.26Q110.63-14.88 110.75-14.33L110.75-14.33L110.75-14.33Q110.88-13.73 110.65-13.16L110.65-13.16L110.65-13.16Q110.42-12.60 110.03-12.19L110.03-12.19L110.03-12.19Q109.63-11.78 109.13-11.60L109.13-11.60L109.13-11.60Q108.63-11.43 108.17-11.60L108.17-11.60L108.17-11.60Q108.15-11.60 108.14-11.68L108.14-11.68L108.14-11.68Q108.13-11.75 108.22-11.73L108.22-11.73L108.22-11.73Q108.53-11.68 108.91-11.86L108.91-11.86L108.91-11.86Q109.30-12.05 109.61-12.38L109.61-12.38L109.61-12.38Q109.92-12.70 110.11-13.15L110.11-13.15L110.11-13.15Q110.30-13.60 110.22-14.08L110.22-14.08L110.22-14.08Q110.15-14.43 109.91-14.69L109.91-14.69L109.91-14.69Q109.67-14.95 109.30-15.11L109.30-15.11L109.30-15.11Q108.92-15.28 108.46-15.33L108.46-15.33L108.46-15.33Q108-15.38 107.50-15.28L107.50-15.28L107.50-15.28Q106.55-15.10 105.74-14.44L105.74-14.44L105.74-14.44Q104.92-13.78 104.30-12.83L104.30-12.83L104.30-12.83Q103.67-11.88 103.25-10.71L103.25-10.71L103.25-10.71Q102.83-9.55 102.67-8.40ZM104.65-0.13L104.65-0.13L104.65-0.13Q104.92-0.10 105.21-0.10L105.21-0.10L105.21-0.10Q105.50-0.10 105.50-0.03L105.50-0.03L105.50-0.03Q105.50 0 105.40 0.01L105.40 0.01L105.40 0.01Q105.30 0.03 105.19 0.03L105.19 0.03L105.19 0.03Q105.08 0.03 104.95 0.03L104.95 0.03L104.95 0.03Q104.83 0.03 104.80 0.03L104.80 0.03L104.80 0.03Q104.03 0.03 103.28-0.20L103.28-0.20L103.28-0.20Q102.53-0.43 101.89-0.84L101.89-0.84L101.89-0.84Q101.25-1.25 100.75-1.85L100.75-1.85L100.75-1.85Q100.25-2.45 100-3.23L100-3.23L100-3.23Q99.50-4.75 99.42-6.20L99.42-6.20L99.42-6.20Q99.35-7.65 99.55-9.05L99.55-9.05L99.55-9.05Q99.65-9.85 99.94-10.86L99.94-10.86L99.94-10.86Q100.22-11.88 100.71-12.93L100.71-12.93L100.71-12.93Q101.20-13.98 101.94-15L101.94-15L101.94-15Q102.67-16.03 103.70-16.88L103.70-16.88L103.70-16.88Q104.78-17.78 106.09-18.07L106.09-18.07L106.09-18.07Q107.40-18.38 108.60-18.18L108.60-18.18L108.60-18.18Q109.80-17.98 110.72-17.34L110.72-17.34L110.72-17.34Q111.65-16.70 111.95-15.73L111.95-15.73L111.95-15.73Q111.97-15.68 112-15.51L112-15.51L112-15.51Q112.03-15.35 111.97-15.30L111.97-15.30L111.97-15.30Q111.95-15.28 111.90-15.43L111.90-15.43L111.90-15.43Q111.85-15.58 111.80-15.63L111.80-15.63L111.80-15.63Q110.75-17.05 109.42-17.44L109.42-17.44L109.42-17.44Q108.10-17.82 106.80-17.51L106.80-17.51L106.80-17.51Q105.50-17.20 104.35-16.36L104.35-16.36L104.35-16.36Q103.20-15.53 102.53-14.50L102.53-14.50L102.53-14.50Q101.35-12.73 100.74-10.73L100.74-10.73L100.74-10.73Q100.13-8.72 100.17-6.60L100.17-6.60L100.17-6.60Q100.20-5.63 100.39-4.55L100.39-4.55L100.39-4.55Q100.58-3.48 101.13-2.50L101.13-2.50L101.13-2.50Q101.67-1.50 102.64-0.84L102.64-0.84L102.64-0.84Q103.60-0.18 104.65-0.13ZM101.05-9.53L101.05-9.53L101.05-9.53Q101.25-10.85 101.69-12.10L101.69-12.10L101.69-12.10Q102.13-13.35 102.84-14.39L102.84-14.39L102.84-14.39Q103.55-15.43 104.60-16.18L104.60-16.18L104.60-16.18Q105.65-16.93 107.08-17.23L107.08-17.23L107.08-17.23Q107.58-17.32 108.20-17.31L108.20-17.31L108.20-17.31Q108.83-17.30 109.45-17.09L109.45-17.09L109.45-17.09Q110.08-16.88 110.61-16.45L110.61-16.45L110.61-16.45Q111.15-16.03 111.50-15.28L111.50-15.28L111.50-15.28Q111.83-14.55 111.72-13.85L111.72-13.85L111.72-13.85Q111.63-13.15 111.30-12.59L111.30-12.59L111.30-12.59Q110.97-12.03 110.50-11.65L110.50-11.65L110.50-11.65Q110.03-11.28 109.58-11.23L109.58-11.23L109.58-11.23Q109.30-11.18 109.28-11.24L109.28-11.24L109.28-11.24Q109.25-11.30 109.55-11.40L109.55-11.40L109.55-11.40Q110.03-11.55 110.51-12.16L110.51-12.16L110.51-12.16Q111-12.78 111.10-13.73L111.10-13.73L111.10-13.73Q111.15-14.20 110.97-14.66L110.97-14.66L110.97-14.66Q110.80-15.13 110.47-15.48L110.47-15.48L110.47-15.48Q110.15-15.83 109.70-16.07L109.70-16.07L109.70-16.07Q109.25-16.32 108.75-16.40L108.75-16.40L108.75-16.40Q107.67-16.55 106.78-16.25L106.78-16.25L106.78-16.25Q105.88-15.95 105.21-15.49L105.21-15.49L105.21-15.49Q104.55-15.03 104.14-14.58L104.14-14.58L104.14-14.58Q103.72-14.13 103.63-13.98L103.63-13.98L103.63-13.98Q102.85-13 102.28-11.86L102.28-11.86L102.28-11.86Q101.70-10.73 101.33-9.47L101.33-9.47L101.33-9.47Q101.33-9.45 101.29-9.30L101.29-9.30L101.29-9.30Q101.25-9.15 101.21-8.99L101.21-8.99L101.21-8.99Q101.17-8.83 101.13-8.69L101.13-8.69L101.13-8.69Q101.08-8.55 101.05-8.55L101.05-8.55L101.05-8.55Q101-8.55 101-8.70L101-8.70L101-8.70Q101-8.85 101-9.01L101-9.01L101-9.01Q101-9.18 101.03-9.33L101.03-9.33L101.03-9.33Q101.05-9.47 101.05-9.53ZM119.65-6.93L119.65-6.93L119.65-6.93Q119.72-7.60 119.67-8.35L119.67-8.35L119.67-8.35Q119.63-9.10 119.36-9.74L119.36-9.74L119.36-9.74Q119.10-10.38 118.56-10.80L118.56-10.80L118.56-10.80Q118.03-11.23 117.15-11.23L117.15-11.23L117.15-11.23Q115.97-11.23 115.10-10.59L115.10-10.59L115.10-10.59Q114.22-9.95 113.60-9.01L113.60-9.01L113.60-9.01Q112.97-8.08 112.63-7.01L112.63-7.01L112.63-7.01Q112.28-5.95 112.17-5.08L112.17-5.08L112.17-5.08Q112.03-3.88 112.14-3L112.14-3L112.14-3Q112.25-2.13 112.55-1.56L112.55-1.56L112.55-1.56Q112.85-1 113.31-0.73L113.31-0.73L113.31-0.73Q113.78-0.45 114.33-0.45L114.33-0.45L114.33-0.45Q115.10-0.43 115.96-0.89L115.96-0.89L115.96-0.89Q116.83-1.35 117.58-2.19L117.58-2.19L117.58-2.19Q118.33-3.03 118.89-4.24L118.89-4.24L118.89-4.24Q119.45-5.45 119.65-6.93ZM111.60-5.20L111.60-5.20L111.60-5.20Q111.70-6.20 112.10-7.40L112.10-7.40L112.10-7.40Q112.50-8.60 113.21-9.63L113.21-9.63L113.21-9.63Q113.92-10.65 114.92-11.34L114.92-11.34L114.92-11.34Q115.92-12.03 117.25-12.03L117.25-12.03L117.25-12.03Q118.25-12.03 118.90-11.55L118.90-11.55L118.90-11.55Q119.55-11.08 119.90-10.34L119.90-10.34L119.90-10.34Q120.25-9.60 120.35-8.74L120.35-8.74L120.35-8.74Q120.45-7.88 120.35-7.10L120.35-7.10L120.35-7.10Q120.13-5.30 119.47-3.98L119.47-3.98L119.47-3.98Q118.83-2.65 117.95-1.76L117.95-1.76L117.95-1.76Q117.08-0.88 116.10-0.44L116.10-0.44L116.10-0.44Q115.13 0 114.22 0L114.22 0L114.22 0Q113.55 0 113.01-0.30L113.01-0.30L113.01-0.30Q112.47-0.60 112.11-1.24L112.11-1.24L112.11-1.24Q111.75-1.88 111.61-2.86L111.61-2.86L111.61-2.86Q111.47-3.85 111.60-5.20ZM114.40-1.68L114.40-1.68L114.40-1.68Q114.28-1.68 114.15-1.76L114.15-1.76L114.15-1.76Q114.03-1.85 113.95-1.98L113.95-1.98L113.95-1.98Q113.88-2.10 113.85-2.23L113.85-2.23L113.85-2.23Q113.83-2.35 113.95-2.40L113.95-2.40L113.95-2.40Q114.03-2.43 114.15-2.23L114.15-2.23L114.15-2.23Q114.28-2.02 114.42-2.02L114.42-2.02L114.42-2.02Q114.67-2.02 115.01-2.35L115.01-2.35L115.01-2.35Q115.35-2.68 115.66-3.11L115.66-3.11L115.66-3.11Q115.97-3.55 116.21-3.98L116.21-3.98L116.21-3.98Q116.45-4.40 116.55-4.60L116.55-4.60L116.55-4.60Q116.65-4.80 116.75-5.11L116.75-5.11L116.75-5.11Q116.85-5.43 116.94-5.75L116.94-5.75L116.94-5.75Q117.03-6.08 117.09-6.39L117.09-6.39L117.09-6.39Q117.15-6.70 117.17-6.93L117.17-6.93L117.17-6.93Q117.30-8.05 117.13-8.66L117.13-8.66L117.13-8.66Q116.95-9.28 116.55-9.28L116.55-9.28L116.55-9.28Q116.25-9.28 115.92-9.09L115.92-9.09L115.92-9.09Q115.60-8.90 115.31-8.60L115.31-8.60L115.31-8.60Q115.03-8.30 114.80-7.94L114.80-7.94L114.80-7.94Q114.58-7.58 114.47-7.20L114.47-7.20L114.47-7.20Q114.35-6.78 114.30-6.78L114.30-6.78L114.30-6.78Q114.22-6.78 114.22-7.20L114.22-7.20L114.22-7.20Q114.30-7.68 114.55-8.14L114.55-8.14L114.55-8.14Q114.80-8.60 115.17-8.96L115.17-8.96L115.17-8.96Q115.55-9.33 116-9.56L116-9.56L116-9.56Q116.45-9.80 116.92-9.80L116.92-9.80L116.92-9.80Q117.40-9.80 117.64-9.46L117.64-9.46L117.64-9.46Q117.88-9.13 117.97-8.64L117.97-8.64L117.97-8.64Q118.08-8.15 118.06-7.64L118.06-7.64L118.06-7.64Q118.05-7.13 118-6.83L118-6.83L118-6.83Q117.90-6.15 117.69-5.51L117.69-5.51L117.69-5.51Q117.47-4.88 117.17-4.23L117.17-4.23L117.17-4.23Q117.03-3.93 116.72-3.49L116.72-3.49L116.72-3.49Q116.42-3.05 116.04-2.65L116.04-2.65L116.04-2.65Q115.65-2.25 115.21-1.96L115.21-1.96L115.21-1.96Q114.78-1.68 114.40-1.68ZM115.20-1.20L115.20-1.20L115.20-1.20Q115.22-1.05 114.96-0.95L114.96-0.95L114.96-0.95Q114.70-0.85 114.42-0.85L114.42-0.85L114.42-0.85Q113.65-0.88 113.24-1.35L113.24-1.35L113.24-1.35Q112.83-1.83 112.66-2.48L112.66-2.48L112.66-2.48Q112.50-3.13 112.51-3.83L112.51-3.83L112.51-3.83Q112.53-4.53 112.58-5L112.58-5L112.58-5Q112.67-5.83 112.97-6.85L112.97-6.85L112.97-6.85Q113.28-7.88 113.83-8.78L113.83-8.78L113.83-8.78Q114.38-9.68 115.17-10.29L115.17-10.29L115.17-10.29Q115.97-10.90 117.08-10.90L117.08-10.90L117.08-10.90Q117.80-10.90 118.24-10.53L118.24-10.53L118.24-10.53Q118.67-10.15 118.89-9.60L118.89-9.60L118.89-9.60Q119.10-9.05 119.14-8.41L119.14-8.41L119.14-8.41Q119.17-7.78 119.10-7.25L119.10-7.25L119.10-7.25Q119.05-6.68 118.92-6.20L118.92-6.20L118.92-6.20Q118.80-5.73 118.58-5.15L118.58-5.15L118.58-5.15Q118.50-4.98 118.38-4.75L118.38-4.75L118.38-4.75Q118.25-4.53 118.10-4.55L118.10-4.55L118.10-4.55Q118.03-4.58 118.06-4.75L118.06-4.75L118.06-4.75Q118.10-4.93 118.16-5.19L118.16-5.19L118.16-5.19Q118.22-5.45 118.30-5.74L118.30-5.74L118.30-5.74Q118.38-6.03 118.40-6.28L118.40-6.28L118.40-6.28Q118.45-6.70 118.46-7.34L118.46-7.34L118.46-7.34Q118.47-7.98 118.36-8.58L118.36-8.58L118.36-8.58Q118.25-9.18 117.95-9.60L117.95-9.60L117.95-9.60Q117.65-10.03 117.05-10.03L117.05-10.03L117.05-10.03Q116.17-10.03 115.44-9.46L115.44-9.46L115.44-9.46Q114.70-8.90 114.15-8.09L114.15-8.09L114.15-8.09Q113.60-7.28 113.26-6.39L113.26-6.39L113.26-6.39Q112.92-5.50 112.85-4.83L112.85-4.83L112.85-4.83Q112.80-4.42 112.83-3.83L112.83-3.83L112.83-3.83Q112.85-3.23 113.01-2.64L113.01-2.64L113.01-2.64Q113.17-2.05 113.55-1.63L113.55-1.63L113.55-1.63Q113.92-1.20 114.58-1.18L114.58-1.18L114.58-1.18Q114.78-1.15 114.96-1.21L114.96-1.21L114.96-1.21Q115.15-1.28 115.20-1.20ZM129.65-9.83L129.65-9.83L129.65-9.83Q129.65-9.80 129.63-9.74L129.63-9.74L129.63-9.74Q129.60-9.68 129.57-9.63L129.57-9.63L129.57-9.63Q129.43-9.28 129.15-9.03L129.15-9.03L129.15-9.03Q128.88-8.78 128.57-8.60L128.57-8.60L128.57-8.60Q128.28-8.43 127.97-8.35L127.97-8.35L127.97-8.35Q127.67-8.28 127.45-8.30L127.45-8.30L127.45-8.30Q126.77-8.35 126.05-8.54L126.05-8.54L126.05-8.54Q125.33-8.72 124.67-8.97L124.67-8.97L124.67-8.97Q124.65-8.97 124.54-9.05L124.54-9.05L124.54-9.05Q124.42-9.13 124.42-9.18L124.42-9.18L124.42-9.18Q124.42-9.22 124.50-9.25L124.50-9.25L124.50-9.25Q124.58-9.28 124.63-9.30L124.63-9.30L124.63-9.30Q124.77-9.35 125.02-9.38L125.02-9.38L125.02-9.38Q125.27-9.40 125.54-9.40L125.54-9.40L125.54-9.40Q125.80-9.40 126.05-9.39L126.05-9.39L126.05-9.39Q126.30-9.38 126.47-9.35L126.47-9.35L126.47-9.35Q126.88-9.28 127.33-9.26L127.33-9.26L127.33-9.26Q127.77-9.25 128.20-9.30L128.20-9.30L128.20-9.30Q128.63-9.35 128.97-9.47L128.97-9.47L128.97-9.47Q129.32-9.60 129.53-9.83L129.53-9.83L129.53-9.83Q129.65-9.95 129.65-9.83ZM129.85-10.58L129.85-10.58L129.78-10.48L129.78-10.48Q129.32-9.85 128.71-9.70L128.71-9.70L128.71-9.70Q128.10-9.55 127.42-9.63L127.42-9.63L127.42-9.63Q126.75-9.70 126.04-9.88L126.04-9.88L126.04-9.88Q125.33-10.05 124.65-10.08L124.65-10.08L124.65-10.08Q123.77-10.13 122.88-9.69L122.88-9.69L122.88-9.69Q121.97-9.25 121.33-8.13L121.33-8.13L121.33-8.13Q121.27-8 121.22-8.03L121.22-8.03L121.22-8.03Q121.20-8.03 121.21-8.11L121.21-8.11L121.21-8.11Q121.22-8.20 121.25-8.25L121.25-8.25L121.25-8.25Q121.50-9 121.88-9.50L121.88-9.50L121.88-9.50Q122.25-10 122.69-10.30L122.69-10.30L122.69-10.30Q123.13-10.60 123.59-10.73L123.59-10.73L123.59-10.73Q124.05-10.85 124.50-10.85L124.50-10.85L124.50-10.85Q125.75-13.50 127.44-15.68L127.44-15.68L127.44-15.68Q129.13-17.85 131.10-19.35L131.10-19.35L131.10-19.35Q131.18-19.40 131.24-19.46L131.24-19.46L131.24-19.46Q131.30-19.53 131.35-19.50L131.35-19.50L131.35-19.50Q131.40-19.50 131.32-19.39L131.32-19.39L131.32-19.39Q131.25-19.28 131.22-19.25L131.22-19.25L131.22-19.25Q129.63-17.53 128.11-15.39L128.11-15.39L128.11-15.39Q126.60-13.25 125.40-10.80L125.40-10.80L125.40-10.80Q125.50-10.75 125.61-10.75L125.61-10.75L125.61-10.75Q125.72-10.75 125.83-10.73L125.83-10.73L125.83-10.73Q126.10-11.35 126.44-12.06L126.44-12.06L126.44-12.06Q126.77-12.78 127.20-13.50L127.20-13.50L127.20-13.50Q127.63-14.28 128.14-14.99L128.14-14.99L128.14-14.99Q128.65-15.70 129.16-16.30L129.16-16.30L129.16-16.30Q129.68-16.90 130.10-17.38L130.10-17.38L130.10-17.38Q130.53-17.85 130.78-18.13L130.78-18.13L130.78-18.13Q130.88-18.23 130.96-18.30L130.96-18.30L130.96-18.30Q131.05-18.38 131.10-18.35L131.10-18.35L131.10-18.35Q131.15-18.32 131.10-18.23L131.10-18.23L131.10-18.23Q131.05-18.13 131-18.05L131-18.05L131-18.05Q130.70-17.45 130.26-16.66L130.26-16.66L130.26-16.66Q129.82-15.88 129.34-15.04L129.34-15.04L129.34-15.04Q128.85-14.20 128.38-13.36L128.38-13.36L128.38-13.36Q127.90-12.53 127.52-11.85L127.52-11.85L127.52-11.85Q127.35-11.53 127.16-11.21L127.16-11.21L127.16-11.21Q126.97-10.90 126.83-10.55L126.83-10.55L126.83-10.55Q127-10.55 127.20-10.48L127.20-10.48L127.20-10.48Q127.75-11.60 128.36-12.69L128.36-12.69L128.36-12.69Q128.97-13.78 129.70-14.88L129.70-14.88L129.70-14.88Q129.80-15 129.81-15.04L129.81-15.04L129.81-15.04Q129.82-15.08 129.88-15.03L129.88-15.03L129.88-15.03Q129.90-15 129.85-14.80L129.85-14.80L129.85-14.80Q129.57-14.08 129.04-12.88L129.04-12.88L129.04-12.88Q128.50-11.68 127.95-10.38L127.95-10.38L127.95-10.38Q128.45-10.33 128.90-10.38L128.90-10.38L128.90-10.38Q129.35-10.43 129.78-10.63L129.78-10.63L129.78-10.63Q129.80-10.63 129.82-10.64L129.82-10.64L129.82-10.64Q129.85-10.65 129.85-10.58ZM123.20-9.10L123.20-9.10L123.20-9.10Q123.20-9 123.04-8.86L123.04-8.86L123.04-8.86Q122.88-8.72 122.83-8.70L122.83-8.70L122.13-8.22L122.13-8.22Q121.92-8.03 121.77-7.85L121.77-7.85L121.77-7.85Q121.63-7.68 121.45-7.43L121.45-7.43L121.45-7.43Q121.40-7.38 121.39-7.33L121.39-7.33L121.39-7.33Q121.38-7.28 121.33-7.28L121.33-7.28L121.33-7.28Q121.30-7.28 121.30-7.48L121.30-7.48L121.30-7.48Q121.30-7.58 121.33-7.68L121.33-7.68L121.33-7.68Q121.45-8.03 121.58-8.26L121.58-8.26L121.58-8.26Q121.70-8.50 122.02-8.78L122.02-8.78L122.02-8.78Q122.15-8.88 122.35-8.97L122.35-8.97L122.35-8.97Q122.55-9.08 122.74-9.14L122.74-9.14L122.74-9.14Q122.92-9.20 123.06-9.20L123.06-9.20L123.06-9.20Q123.20-9.20 123.20-9.10ZM124.05-7.48L124.05-7.48L124.05-7.48Q123.70-6.53 123.47-5.60L123.47-5.60L123.47-5.60Q123.25-4.67 123.05-3.73L123.05-3.73L123.05-3.73Q122.77-2.33 122.66-0.86L122.66-0.86L122.66-0.86Q122.55 0.60 122.61 2.01L122.61 2.01L122.61 2.01Q122.67 3.43 122.91 4.75L122.91 4.75L122.91 4.75Q123.15 6.08 123.58 7.20L123.58 7.20L123.58 7.20Q123.63 7.33 123.66 7.41L123.66 7.41L123.66 7.41Q123.70 7.50 123.65 7.50L123.65 7.50L123.65 7.50Q123.58 7.50 123.50 7.40L123.50 7.40L123.50 7.40Q122.80 6.25 122.40 4.89L122.40 4.89L122.40 4.89Q122 3.53 121.89 2L121.89 2L121.89 2Q121.77 0.48 121.91-1.15L121.91-1.15L121.91-1.15Q122.05-2.78 122.40-4.42L122.40-4.42L122.40-4.42Q122.72-6.08 123.22-7.65L123.22-7.65L123.22-7.65Q123.02-7.70 122.88-7.73L122.88-7.73L122.88-7.73Q122.72-7.75 122.58-7.80L122.58-7.80L122.58-7.80Q122.52-7.83 122.42-7.86L122.42-7.86L122.42-7.86Q122.33-7.90 122.33-7.95L122.33-7.95L122.33-7.95Q122.33-8 122.40-8.03L122.40-8.03L122.40-8.03Q122.47-8.05 122.52-8.08L122.52-8.08L122.52-8.08Q123.42-8.40 124.35-8.33L124.35-8.33L124.35-8.33Q125.27-8.25 126.22-8.08L126.22-8.08L126.22-8.08Q126.80-7.98 127.41-7.93L127.41-7.93L127.41-7.93Q128.03-7.88 128.68-8.13L128.68-8.13L128.68-8.13Q128.78-8.18 128.78-8.13L128.78-8.13L128.78-8.13Q128.78-8.10 128.68-7.95L128.68-7.95L128.68-7.95Q128.40-7.53 127.86-7.39L127.86-7.39L127.86-7.39Q127.33-7.25 126.75-7.23L126.75-7.23L126.75-7.23Q126.40-6.18 126.16-5.25L126.16-5.25L126.16-5.25Q125.92-4.33 125.80-3.68L125.80-3.68L124.30 3.30L124.30 3.30Q124.25 3.53 124.22 3.69L124.22 3.69L124.22 3.69Q124.20 3.85 124.15 3.80L124.15 3.80L124.15 3.80Q124.08 3.85 124.06 3.64L124.06 3.64L124.06 3.64Q124.05 3.43 124.05 3.23L124.05 3.23L124.05 3.23Q124.05 0.80 124.51-1.89L124.51-1.89L124.51-1.89Q124.97-4.58 125.90-7.25L125.90-7.25L125.90-7.25Q125.75-7.30 125.64-7.30L125.64-7.30L125.64-7.30Q125.52-7.30 125.40-7.33L125.40-7.33L125.40-7.33Q125.02-6.35 124.71-5.38L124.71-5.38L124.71-5.38Q124.40-4.40 124.10-3.45L124.10-3.45L124.10-3.45Q124.10-3.40 124.06-3.29L124.06-3.29L124.06-3.29Q124.02-3.18 123.97-3.05L123.97-3.05L123.97-3.05Q123.92-2.93 123.86-2.84L123.86-2.84L123.86-2.84Q123.80-2.75 123.77-2.75L123.77-2.75L123.77-2.75Q123.75-2.75 123.76-2.85L123.76-2.85L123.76-2.85Q123.77-2.95 123.79-3.09L123.79-3.09L123.79-3.09Q123.80-3.23 123.81-3.36L123.81-3.36L123.81-3.36Q123.83-3.50 123.83-3.55L123.83-3.55L123.83-3.55Q123.88-4.25 124.10-5.31L124.10-5.31L124.10-5.31Q124.33-6.38 124.60-7.40L124.60-7.40L124.60-7.40Q124.30-7.40 124.05-7.48ZM124.35 7.40L124.35 7.40L124.35 7.40Q124.30 7.43 124.17 7.30L124.17 7.30L124.17 7.30Q124.13 7.25 124.10 7.20L124.10 7.20L124.10 7.20Q123.95 6.95 123.84 6.74L123.84 6.74L123.84 6.74Q123.72 6.53 123.63 6.26L123.63 6.26L123.63 6.26Q123.52 6 123.44 5.63L123.44 5.63L123.44 5.63Q123.35 5.25 123.27 4.67L123.27 4.67L123.27 4.67Q123.20 4.25 123.17 3.59L123.17 3.59L123.17 3.59Q123.15 2.93 123.15 2.30L123.15 2.30L123.15 2.30Q123.15 1.68 123.20 1.23L123.20 1.23L123.20 1.23Q123.25 0.78 123.33 0.78L123.33 0.78L123.33 0.78Q123.38 0.78 123.42 0.96L123.42 0.96L123.42 0.96Q123.47 1.15 123.50 1.40L123.50 1.40L123.50 1.40Q123.52 1.65 123.54 1.89L123.54 1.89L123.54 1.89Q123.55 2.13 123.55 2.23L123.55 2.23L123.77 4.53L123.77 4.53Q123.85 5.20 124 5.83L124 5.83L124 5.83Q124.15 6.45 124.33 7.08L124.33 7.08L124.33 7.08Q124.35 7.18 124.36 7.29L124.36 7.29L124.36 7.29Q124.38 7.40 124.35 7.40ZM137.50-9.83L137.50-9.83L137.50-9.83Q137.50-9.80 137.47-9.74L137.47-9.74L137.47-9.74Q137.45-9.68 137.43-9.63L137.43-9.63L137.43-9.63Q137.28-9.28 137-9.03L137-9.03L137-9.03Q136.72-8.78 136.43-8.60L136.43-8.60L136.43-8.60Q136.13-8.43 135.83-8.35L135.83-8.35L135.83-8.35Q135.53-8.28 135.30-8.30L135.30-8.30L135.30-8.30Q134.63-8.35 133.90-8.54L133.90-8.54L133.90-8.54Q133.18-8.72 132.53-8.97L132.53-8.97L132.53-8.97Q132.50-8.97 132.39-9.05L132.39-9.05L132.39-9.05Q132.28-9.13 132.28-9.18L132.28-9.18L132.28-9.18Q132.28-9.22 132.35-9.25L132.35-9.25L132.35-9.25Q132.43-9.28 132.47-9.30L132.47-9.30L132.47-9.30Q132.63-9.35 132.88-9.38L132.88-9.38L132.88-9.38Q133.13-9.40 133.39-9.40L133.39-9.40L133.39-9.40Q133.65-9.40 133.90-9.39L133.90-9.39L133.90-9.39Q134.15-9.38 134.33-9.35L134.33-9.35L134.33-9.35Q134.72-9.28 135.18-9.26L135.18-9.26L135.18-9.26Q135.63-9.25 136.05-9.30L136.05-9.30L136.05-9.30Q136.47-9.35 136.83-9.47L136.83-9.47L136.83-9.47Q137.18-9.60 137.38-9.83L137.38-9.83L137.38-9.83Q137.50-9.95 137.50-9.83ZM137.70-10.58L137.70-10.58L137.63-10.48L137.63-10.48Q137.18-9.85 136.56-9.70L136.56-9.70L136.56-9.70Q135.95-9.55 135.28-9.63L135.28-9.63L135.28-9.63Q134.60-9.70 133.89-9.88L133.89-9.88L133.89-9.88Q133.18-10.05 132.50-10.08L132.50-10.08L132.50-10.08Q131.63-10.13 130.72-9.69L130.72-9.69L130.72-9.69Q129.83-9.25 129.18-8.13L129.18-8.13L129.18-8.13Q129.13-8 129.08-8.03L129.08-8.03L129.08-8.03Q129.05-8.03 129.06-8.11L129.06-8.11L129.06-8.11Q129.08-8.20 129.10-8.25L129.10-8.25L129.10-8.25Q129.35-9 129.72-9.50L129.72-9.50L129.72-9.50Q130.10-10 130.54-10.30L130.54-10.30L130.54-10.30Q130.97-10.60 131.44-10.73L131.44-10.73L131.44-10.73Q131.90-10.85 132.35-10.85L132.35-10.85L132.35-10.85Q133.60-13.50 135.29-15.68L135.29-15.68L135.29-15.68Q136.97-17.85 138.95-19.35L138.95-19.35L138.95-19.35Q139.03-19.40 139.09-19.46L139.09-19.46L139.09-19.46Q139.15-19.53 139.20-19.50L139.20-19.50L139.20-19.50Q139.25-19.50 139.18-19.39L139.18-19.39L139.18-19.39Q139.10-19.28 139.08-19.25L139.08-19.25L139.08-19.25Q137.47-17.53 135.96-15.39L135.96-15.39L135.96-15.39Q134.45-13.25 133.25-10.80L133.25-10.80L133.25-10.80Q133.35-10.75 133.46-10.75L133.46-10.75L133.46-10.75Q133.58-10.75 133.68-10.73L133.68-10.73L133.68-10.73Q133.95-11.35 134.29-12.06L134.29-12.06L134.29-12.06Q134.63-12.78 135.05-13.50L135.05-13.50L135.05-13.50Q135.47-14.28 135.99-14.99L135.99-14.99L135.99-14.99Q136.50-15.70 137.01-16.30L137.01-16.30L137.01-16.30Q137.53-16.90 137.95-17.38L137.95-17.38L137.95-17.38Q138.38-17.85 138.63-18.13L138.63-18.13L138.63-18.13Q138.72-18.23 138.81-18.30L138.81-18.30L138.81-18.30Q138.90-18.38 138.95-18.35L138.95-18.35L138.95-18.35Q139-18.32 138.95-18.23L138.95-18.23L138.95-18.23Q138.90-18.13 138.85-18.05L138.85-18.05L138.85-18.05Q138.55-17.45 138.11-16.66L138.11-16.66L138.11-16.66Q137.68-15.88 137.19-15.04L137.19-15.04L137.19-15.04Q136.70-14.20 136.22-13.36L136.22-13.36L136.22-13.36Q135.75-12.53 135.38-11.85L135.38-11.85L135.38-11.85Q135.20-11.53 135.01-11.21L135.01-11.21L135.01-11.21Q134.83-10.90 134.68-10.55L134.68-10.55L134.68-10.55Q134.85-10.55 135.05-10.48L135.05-10.48L135.05-10.48Q135.60-11.60 136.21-12.69L136.21-12.69L136.21-12.69Q136.83-13.78 137.55-14.88L137.55-14.88L137.55-14.88Q137.65-15 137.66-15.04L137.66-15.04L137.66-15.04Q137.68-15.08 137.72-15.03L137.72-15.03L137.72-15.03Q137.75-15 137.70-14.80L137.70-14.80L137.70-14.80Q137.43-14.08 136.89-12.88L136.89-12.88L136.89-12.88Q136.35-11.68 135.80-10.38L135.80-10.38L135.80-10.38Q136.30-10.33 136.75-10.38L136.75-10.38L136.75-10.38Q137.20-10.43 137.63-10.63L137.63-10.63L137.63-10.63Q137.65-10.63 137.68-10.64L137.68-10.64L137.68-10.64Q137.70-10.65 137.70-10.58ZM131.05-9.10L131.05-9.10L131.05-9.10Q131.05-9 130.89-8.86L130.89-8.86L130.89-8.86Q130.72-8.72 130.68-8.70L130.68-8.70L129.97-8.22L129.97-8.22Q129.78-8.03 129.63-7.85L129.63-7.85L129.63-7.85Q129.47-7.68 129.30-7.43L129.30-7.43L129.30-7.43Q129.25-7.38 129.24-7.33L129.24-7.33L129.24-7.33Q129.22-7.28 129.18-7.28L129.18-7.28L129.18-7.28Q129.15-7.28 129.15-7.48L129.15-7.48L129.15-7.48Q129.15-7.58 129.18-7.68L129.18-7.68L129.18-7.68Q129.30-8.03 129.43-8.26L129.43-8.26L129.43-8.26Q129.55-8.50 129.88-8.78L129.88-8.78L129.88-8.78Q130-8.88 130.20-8.97L130.20-8.97L130.20-8.97Q130.40-9.08 130.59-9.14L130.59-9.14L130.59-9.14Q130.78-9.20 130.91-9.20L130.91-9.20L130.91-9.20Q131.05-9.20 131.05-9.10ZM131.90-7.48L131.90-7.48L131.90-7.48Q131.55-6.53 131.33-5.60L131.33-5.60L131.33-5.60Q131.10-4.67 130.90-3.73L130.90-3.73L130.90-3.73Q130.63-2.33 130.51-0.86L130.51-0.86L130.51-0.86Q130.40 0.60 130.46 2.01L130.46 2.01L130.46 2.01Q130.53 3.43 130.76 4.75L130.76 4.75L130.76 4.75Q131 6.08 131.43 7.20L131.43 7.20L131.43 7.20Q131.47 7.33 131.51 7.41L131.51 7.41L131.51 7.41Q131.55 7.50 131.50 7.50L131.50 7.50L131.50 7.50Q131.43 7.50 131.35 7.40L131.35 7.40L131.35 7.40Q130.65 6.25 130.25 4.89L130.25 4.89L130.25 4.89Q129.85 3.53 129.74 2L129.74 2L129.74 2Q129.63 0.48 129.76-1.15L129.76-1.15L129.76-1.15Q129.90-2.78 130.25-4.42L130.25-4.42L130.25-4.42Q130.58-6.08 131.08-7.65L131.08-7.65L131.08-7.65Q130.88-7.70 130.72-7.73L130.72-7.73L130.72-7.73Q130.58-7.75 130.43-7.80L130.43-7.80L130.43-7.80Q130.38-7.83 130.28-7.86L130.28-7.86L130.28-7.86Q130.18-7.90 130.18-7.95L130.18-7.95L130.18-7.95Q130.18-8 130.25-8.03L130.25-8.03L130.25-8.03Q130.33-8.05 130.38-8.08L130.38-8.08L130.38-8.08Q131.28-8.40 132.20-8.33L132.20-8.33L132.20-8.33Q133.13-8.25 134.08-8.08L134.08-8.08L134.08-8.08Q134.65-7.98 135.26-7.93L135.26-7.93L135.26-7.93Q135.88-7.88 136.53-8.13L136.53-8.13L136.53-8.13Q136.63-8.18 136.63-8.13L136.63-8.13L136.63-8.13Q136.63-8.10 136.53-7.95L136.53-7.95L136.53-7.95Q136.25-7.53 135.71-7.39L135.71-7.39L135.71-7.39Q135.18-7.25 134.60-7.23L134.60-7.23L134.60-7.23Q134.25-6.18 134.01-5.25L134.01-5.25L134.01-5.25Q133.78-4.33 133.65-3.68L133.65-3.68L132.15 3.30L132.15 3.30Q132.10 3.53 132.08 3.69L132.08 3.69L132.08 3.69Q132.05 3.85 132 3.80L132 3.80L132 3.80Q131.93 3.85 131.91 3.64L131.91 3.64L131.91 3.64Q131.90 3.43 131.90 3.23L131.90 3.23L131.90 3.23Q131.90 0.80 132.36-1.89L132.36-1.89L132.36-1.89Q132.83-4.58 133.75-7.25L133.75-7.25L133.75-7.25Q133.60-7.30 133.49-7.30L133.49-7.30L133.49-7.30Q133.38-7.30 133.25-7.33L133.25-7.33L133.25-7.33Q132.88-6.35 132.56-5.38L132.56-5.38L132.56-5.38Q132.25-4.40 131.95-3.45L131.95-3.45L131.95-3.45Q131.95-3.40 131.91-3.29L131.91-3.29L131.91-3.29Q131.88-3.18 131.83-3.05L131.83-3.05L131.83-3.05Q131.78-2.93 131.71-2.84L131.71-2.84L131.71-2.84Q131.65-2.75 131.63-2.75L131.63-2.75L131.63-2.75Q131.60-2.75 131.61-2.85L131.61-2.85L131.61-2.85Q131.63-2.95 131.64-3.09L131.64-3.09L131.64-3.09Q131.65-3.23 131.66-3.36L131.66-3.36L131.66-3.36Q131.68-3.50 131.68-3.55L131.68-3.55L131.68-3.55Q131.72-4.25 131.95-5.31L131.95-5.31L131.95-5.31Q132.18-6.38 132.45-7.40L132.45-7.40L132.45-7.40Q132.15-7.40 131.90-7.48ZM132.20 7.40L132.20 7.40L132.20 7.40Q132.15 7.43 132.03 7.30L132.03 7.30L132.03 7.30Q131.97 7.25 131.95 7.20L131.95 7.20L131.95 7.20Q131.80 6.95 131.69 6.74L131.69 6.74L131.69 6.74Q131.58 6.53 131.47 6.26L131.47 6.26L131.47 6.26Q131.38 6 131.29 5.63L131.29 5.63L131.29 5.63Q131.20 5.25 131.13 4.67L131.13 4.67L131.13 4.67Q131.05 4.25 131.03 3.59L131.03 3.59L131.03 3.59Q131 2.93 131 2.30L131 2.30L131 2.30Q131 1.68 131.05 1.23L131.05 1.23L131.05 1.23Q131.10 0.78 131.18 0.78L131.18 0.78L131.18 0.78Q131.22 0.78 131.28 0.96L131.28 0.96L131.28 0.96Q131.33 1.15 131.35 1.40L131.35 1.40L131.35 1.40Q131.38 1.65 131.39 1.89L131.39 1.89L131.39 1.89Q131.40 2.13 131.40 2.23L131.40 2.23L131.63 4.53L131.63 4.53Q131.70 5.20 131.85 5.83L131.85 5.83L131.85 5.83Q132 6.45 132.18 7.08L132.18 7.08L132.18 7.08Q132.20 7.18 132.21 7.29L132.21 7.29L132.21 7.29Q132.22 7.40 132.20 7.40ZM143.78-10.20L143.78-10.20L143.78-10.20Q143.97-9.95 144.09-9.58L144.09-9.58L144.09-9.58Q144.20-9.20 144.18-8.76L144.18-8.76L144.18-8.76Q144.15-8.33 143.97-7.85L143.97-7.85L143.97-7.85Q143.80-7.38 143.43-6.93L143.43-6.93L143.43-6.93Q142.70-6.08 141.84-5.61L141.84-5.61L141.84-5.61Q140.97-5.15 140.28-5.15L140.28-5.15L140.28-5.15Q139.85-5.15 140.28-5.30L140.28-5.30L140.28-5.30Q140.50-5.38 140.81-5.54L140.81-5.54L140.81-5.54Q141.13-5.70 141.47-5.94L141.47-5.94L141.47-5.94Q141.82-6.18 142.19-6.50L142.19-6.50L142.19-6.50Q142.55-6.83 142.85-7.25L142.85-7.25L142.85-7.25Q143.35-7.95 143.44-8.61L143.44-8.61L143.44-8.61Q143.53-9.28 143.18-9.63L143.18-9.63L143.18-9.63Q142.88-9.93 142.47-9.96L142.47-9.96L142.47-9.96Q142.07-10 141.28-9.53L141.28-9.53L141.28-9.53Q140.55-9.10 139.97-8.47L139.97-8.47L139.97-8.47Q139.40-7.85 138.90-7.15L138.90-7.15L138.90-7.15Q138.63-6.80 138.54-6.80L138.54-6.80L138.54-6.80Q138.45-6.80 138.60-7.25L138.60-7.25L138.60-7.25Q138.90-8.13 139.44-8.88L139.44-8.88L139.44-8.88Q139.97-9.63 140.72-10.15L140.72-10.15L140.72-10.15Q141.28-10.53 141.74-10.68L141.74-10.68L141.74-10.68Q142.20-10.83 142.59-10.80L142.59-10.80L142.59-10.80Q142.97-10.78 143.28-10.61L143.28-10.61L143.28-10.61Q143.57-10.45 143.78-10.20ZM145.13-8.45L145.13-8.45L145.13-8.45Q145.03-7.85 144.81-7.44L144.81-7.44L144.81-7.44Q144.60-7.03 144.34-6.74L144.34-6.74L144.34-6.74Q144.07-6.45 143.81-6.28L143.81-6.28L143.81-6.28Q143.55-6.10 143.35-5.95L143.35-5.95L143.35-5.95Q143.25-5.88 143.20-5.93L143.20-5.93L143.20-5.93Q143.15-5.98 143.28-6.10L143.28-6.10L143.28-6.10Q143.72-6.48 144.19-7.11L144.19-7.11L144.19-7.11Q144.65-7.75 144.68-8.53L144.68-8.53L144.68-8.53Q144.68-9.85 144.03-10.55L144.03-10.55L144.03-10.55Q143.38-11.25 142.40-11.16L142.40-11.16L142.40-11.16Q141.43-11.08 140.38-10.40L140.38-10.40L140.38-10.40Q139.70-9.98 139.19-9.41L139.19-9.41L139.19-9.41Q138.68-8.85 138.30-8.21L138.30-8.21L138.30-8.21Q137.93-7.58 137.69-6.90L137.69-6.90L137.69-6.90Q137.45-6.23 137.35-5.55L137.35-5.55L137.35-5.55Q137.25-4.90 137.16-4.15L137.16-4.15L137.16-4.15Q137.07-3.40 137.16-2.68L137.16-2.68L137.16-2.68Q137.25-1.95 137.63-1.29L137.63-1.29L137.63-1.29Q138-0.63 138.80-0.15L138.80-0.15L138.80-0.15Q138.93-0.08 139.06-0.05L139.06-0.05L139.06-0.05Q139.20-0.03 139.20 0L139.20 0L139.20 0Q139.20 0.05 139.07 0.06L139.07 0.06L139.07 0.06Q138.95 0.08 138.80 0.03L138.80 0.03L138.80 0.03Q138.18-0.10 137.74-0.49L137.74-0.49L137.74-0.49Q137.30-0.88 137.03-1.38L137.03-1.38L137.03-1.38Q136.75-1.88 136.60-2.43L136.60-2.43L136.60-2.43Q136.45-2.98 136.43-3.43L136.43-3.43L136.43-3.43Q136.28-5.40 136.97-7.33L136.97-7.33L136.97-7.33Q137.13-7.73 137.36-8.22L137.36-8.22L137.36-8.22Q137.60-8.72 137.95-9.24L137.95-9.24L137.95-9.24Q138.30-9.75 138.78-10.24L138.78-10.24L138.78-10.24Q139.25-10.73 139.85-11.10L139.85-11.10L139.85-11.10Q140.43-11.45 141.05-11.63L141.05-11.63L141.05-11.63Q141.68-11.80 142.30-11.79L142.30-11.79L142.30-11.79Q142.93-11.78 143.47-11.56L143.47-11.56L143.47-11.56Q144.03-11.35 144.45-10.93L144.45-10.93L144.45-10.93Q144.82-10.53 145.04-9.90L145.04-9.90L145.04-9.90Q145.25-9.28 145.13-8.45ZM142.85-9.35L142.85-9.35L142.85-9.35Q143.15-9 142.93-8.26L142.93-8.26L142.93-8.26Q142.70-7.53 141.88-6.78L141.88-6.78L141.88-6.78Q141.43-6.35 141-6.09L141-6.09L141-6.09Q140.57-5.83 139.93-5.63L139.93-5.63L139.93-5.63Q139.65-4.67 139.57-3.75L139.57-3.75L139.57-3.75Q139.50-2.83 139.63-2.25L139.63-2.25L139.63-2.25Q139.65-2.02 139.79-1.81L139.79-1.81L139.79-1.81Q139.93-1.60 140.19-1.49L140.19-1.49L140.19-1.49Q140.45-1.38 140.88-1.40L140.88-1.40L140.88-1.40Q141.30-1.43 141.93-1.68L141.93-1.68L141.93-1.68Q142.10-1.75 142.14-1.71L142.14-1.71L142.14-1.71Q142.18-1.68 141.97-1.55L141.97-1.55L141.97-1.55Q141.53-1.20 141.03-1.06L141.03-1.06L141.03-1.06Q140.53-0.93 140.09-0.98L140.09-0.98L140.09-0.98Q139.65-1.03 139.34-1.28L139.34-1.28L139.34-1.28Q139.03-1.53 138.93-1.95L138.93-1.95L138.93-1.95Q138.72-2.83 138.75-3.78L138.75-3.78L138.75-3.78Q138.78-4.73 139.04-5.65L139.04-5.65L139.04-5.65Q139.30-6.58 139.79-7.39L139.79-7.39L139.79-7.39Q140.28-8.20 141-8.78L141-8.78L141-8.78Q142.35-9.85 142.85-9.35ZM142.60-1.38L142.60-1.38L142.60-1.38Q142.43-1.13 142.16-0.89L142.16-0.89L142.16-0.89Q141.90-0.65 141.56-0.46L141.56-0.46L141.56-0.46Q141.22-0.28 140.86-0.15L140.86-0.15L140.86-0.15Q140.50-0.03 140.13-0.03L140.13-0.03L140.13-0.03Q139.47-0.03 138.91-0.31L138.91-0.31L138.91-0.31Q138.35-0.60 138.05-1.48L138.05-1.48L138.05-1.48Q138-1.58 138-1.66L138-1.66L138-1.66Q138-1.75 138.05-1.75L138.05-1.75L138.05-1.75Q138.15-1.80 138.25-1.69L138.25-1.69L138.25-1.69Q138.35-1.58 138.45-1.45L138.45-1.45L138.45-1.45Q138.72-1.13 139.16-0.88L139.16-0.88L139.16-0.88Q139.60-0.63 140-0.63L140-0.63L140-0.63Q140.75-0.63 141.30-0.85L141.30-0.85L141.30-0.85Q141.85-1.07 142.35-1.45L142.35-1.45L142.35-1.45Q142.47-1.53 142.64-1.60L142.64-1.60L142.64-1.60Q142.80-1.68 142.60-1.38ZM142.25-8.68L142.25-8.68L142.25-8.68Q142.15-8.88 141.53-8.35L141.53-8.35L141.53-8.35Q140.95-7.90 140.61-7.31L140.61-7.31L140.61-7.31Q140.28-6.73 140.03-6.03L140.03-6.03L140.03-6.03Q140.50-6.25 140.90-6.54L140.90-6.54L140.90-6.54Q141.30-6.83 141.65-7.10L141.65-7.10L141.65-7.10Q142.03-7.43 142.20-7.95L142.20-7.95L142.20-7.95Q142.38-8.47 142.25-8.68ZM152.38-10.20L152.38-10.20L152.38-10.20Q152.57-9.95 152.69-9.58L152.69-9.58L152.69-9.58Q152.80-9.20 152.78-8.76L152.78-8.76L152.78-8.76Q152.75-8.33 152.57-7.85L152.57-7.85L152.57-7.85Q152.40-7.38 152.03-6.93L152.03-6.93L152.03-6.93Q151.30-6.08 150.44-5.61L150.44-5.61L150.44-5.61Q149.57-5.15 148.88-5.15L148.88-5.15L148.88-5.15Q148.45-5.15 148.88-5.30L148.88-5.30L148.88-5.30Q149.10-5.38 149.41-5.54L149.41-5.54L149.41-5.54Q149.72-5.70 150.07-5.94L150.07-5.94L150.07-5.94Q150.42-6.18 150.79-6.50L150.79-6.50L150.79-6.50Q151.15-6.83 151.45-7.25L151.45-7.25L151.45-7.25Q151.95-7.95 152.04-8.61L152.04-8.61L152.04-8.61Q152.13-9.28 151.78-9.63L151.78-9.63L151.78-9.63Q151.47-9.93 151.07-9.96L151.07-9.96L151.07-9.96Q150.67-10 149.88-9.53L149.88-9.53L149.88-9.53Q149.15-9.10 148.57-8.47L148.57-8.47L148.57-8.47Q148-7.85 147.50-7.15L147.50-7.15L147.50-7.15Q147.22-6.80 147.14-6.80L147.14-6.80L147.14-6.80Q147.05-6.80 147.20-7.25L147.20-7.25L147.20-7.25Q147.50-8.13 148.04-8.88L148.04-8.88L148.04-8.88Q148.57-9.63 149.32-10.15L149.32-10.15L149.32-10.15Q149.88-10.53 150.34-10.68L150.34-10.68L150.34-10.68Q150.80-10.83 151.19-10.80L151.19-10.80L151.19-10.80Q151.57-10.78 151.88-10.61L151.88-10.61L151.88-10.61Q152.17-10.45 152.38-10.20ZM153.72-8.45L153.72-8.45L153.72-8.45Q153.63-7.85 153.41-7.44L153.41-7.44L153.41-7.44Q153.20-7.03 152.94-6.74L152.94-6.74L152.94-6.74Q152.67-6.45 152.41-6.28L152.41-6.28L152.41-6.28Q152.15-6.10 151.95-5.95L151.95-5.95L151.95-5.95Q151.85-5.88 151.80-5.93L151.80-5.93L151.80-5.93Q151.75-5.98 151.88-6.10L151.88-6.10L151.88-6.10Q152.32-6.48 152.79-7.11L152.79-7.11L152.79-7.11Q153.25-7.75 153.28-8.53L153.28-8.53L153.28-8.53Q153.28-9.85 152.63-10.55L152.63-10.55L152.63-10.55Q151.97-11.25 151-11.16L151-11.16L151-11.16Q150.03-11.08 148.97-10.40L148.97-10.40L148.97-10.40Q148.30-9.98 147.79-9.41L147.79-9.41L147.79-9.41Q147.28-8.85 146.90-8.21L146.90-8.21L146.90-8.21Q146.53-7.58 146.29-6.90L146.29-6.90L146.29-6.90Q146.05-6.23 145.95-5.55L145.95-5.55L145.95-5.55Q145.85-4.90 145.76-4.15L145.76-4.15L145.76-4.15Q145.67-3.40 145.76-2.68L145.76-2.68L145.76-2.68Q145.85-1.95 146.22-1.29L146.22-1.29L146.22-1.29Q146.60-0.63 147.40-0.15L147.40-0.15L147.40-0.15Q147.53-0.08 147.66-0.05L147.66-0.05L147.66-0.05Q147.80-0.03 147.80 0L147.80 0L147.80 0Q147.80 0.05 147.67 0.06L147.67 0.06L147.67 0.06Q147.55 0.08 147.40 0.03L147.40 0.03L147.40 0.03Q146.78-0.10 146.34-0.49L146.34-0.49L146.34-0.49Q145.90-0.88 145.63-1.38L145.63-1.38L145.63-1.38Q145.35-1.88 145.20-2.43L145.20-2.43L145.20-2.43Q145.05-2.98 145.03-3.43L145.03-3.43L145.03-3.43Q144.88-5.40 145.57-7.33L145.57-7.33L145.57-7.33Q145.72-7.73 145.96-8.22L145.96-8.22L145.96-8.22Q146.20-8.72 146.55-9.24L146.55-9.24L146.55-9.24Q146.90-9.75 147.38-10.24L147.38-10.24L147.38-10.24Q147.85-10.73 148.45-11.10L148.45-11.10L148.45-11.10Q149.03-11.45 149.65-11.63L149.65-11.63L149.65-11.63Q150.28-11.80 150.90-11.79L150.90-11.79L150.90-11.79Q151.53-11.78 152.07-11.56L152.07-11.56L152.07-11.56Q152.63-11.35 153.05-10.93L153.05-10.93L153.05-10.93Q153.42-10.53 153.64-9.90L153.64-9.90L153.64-9.90Q153.85-9.28 153.72-8.45ZM151.45-9.35L151.45-9.35L151.45-9.35Q151.75-9 151.53-8.26L151.53-8.26L151.53-8.26Q151.30-7.53 150.47-6.78L150.47-6.78L150.47-6.78Q150.03-6.35 149.60-6.09L149.60-6.09L149.60-6.09Q149.17-5.83 148.53-5.63L148.53-5.63L148.53-5.63Q148.25-4.67 148.17-3.75L148.17-3.75L148.17-3.75Q148.10-2.83 148.22-2.25L148.22-2.25L148.22-2.25Q148.25-2.02 148.39-1.81L148.39-1.81L148.39-1.81Q148.53-1.60 148.79-1.49L148.79-1.49L148.79-1.49Q149.05-1.38 149.47-1.40L149.47-1.40L149.47-1.40Q149.90-1.43 150.53-1.68L150.53-1.68L150.53-1.68Q150.70-1.75 150.74-1.71L150.74-1.71L150.74-1.71Q150.78-1.68 150.57-1.55L150.57-1.55L150.57-1.55Q150.13-1.20 149.63-1.06L149.63-1.06L149.63-1.06Q149.13-0.93 148.69-0.98L148.69-0.98L148.69-0.98Q148.25-1.03 147.94-1.28L147.94-1.28L147.94-1.28Q147.63-1.53 147.53-1.95L147.53-1.95L147.53-1.95Q147.32-2.83 147.35-3.78L147.35-3.78L147.35-3.78Q147.38-4.73 147.64-5.65L147.64-5.65L147.64-5.65Q147.90-6.58 148.39-7.39L148.39-7.39L148.39-7.39Q148.88-8.20 149.60-8.78L149.60-8.78L149.60-8.78Q150.95-9.85 151.45-9.35ZM151.20-1.38L151.20-1.38L151.20-1.38Q151.03-1.13 150.76-0.89L150.76-0.89L150.76-0.89Q150.50-0.65 150.16-0.46L150.16-0.46L150.16-0.46Q149.82-0.28 149.46-0.15L149.46-0.15L149.46-0.15Q149.10-0.03 148.72-0.03L148.72-0.03L148.72-0.03Q148.07-0.03 147.51-0.31L147.51-0.31L147.51-0.31Q146.95-0.60 146.65-1.48L146.65-1.48L146.65-1.48Q146.60-1.58 146.60-1.66L146.60-1.66L146.60-1.66Q146.60-1.75 146.65-1.75L146.65-1.75L146.65-1.75Q146.75-1.80 146.85-1.69L146.85-1.69L146.85-1.69Q146.95-1.58 147.05-1.45L147.05-1.45L147.05-1.45Q147.32-1.13 147.76-0.88L147.76-0.88L147.76-0.88Q148.20-0.63 148.60-0.63L148.60-0.63L148.60-0.63Q149.35-0.63 149.90-0.85L149.90-0.85L149.90-0.85Q150.45-1.07 150.95-1.45L150.95-1.45L150.95-1.45Q151.07-1.53 151.24-1.60L151.24-1.60L151.24-1.60Q151.40-1.68 151.20-1.38ZM150.85-8.68L150.85-8.68L150.85-8.68Q150.75-8.88 150.13-8.35L150.13-8.35L150.13-8.35Q149.55-7.90 149.21-7.31L149.21-7.31L149.21-7.31Q148.88-6.73 148.63-6.03L148.63-6.03L148.63-6.03Q149.10-6.25 149.50-6.54L149.50-6.54L149.50-6.54Q149.90-6.83 150.25-7.10L150.25-7.10L150.25-7.10Q150.63-7.43 150.80-7.95L150.80-7.95L150.80-7.95Q150.97-8.47 150.85-8.68Z" fill="#774023"></path></g></g><style>text {
  font-size: 64px;
  font-family: Arial Black;
  dominant-baseline: central;
  text-anchor: middle;
}</style></svg>